<?xml version="1.0" encoding="iso-8859-1"?>
<!-- Generator: Adobe Illustrator 19.0.0, SVG Export Plug-In . SVG Version: 6.00 Build 0)  -->
<svg version="1.1" id="Layer_1" xmlns="http://www.w3.org/2000/svg" xmlns:xlink="http://www.w3.org/1999/xlink" x="0px" y="0px"
	 viewBox="0 0 512.001 512.001" style="enable-background:new 0 0 512.001 512.001;" xml:space="preserve">
<g>
	<g>
		<path d="M456.566,58.504c-0.507-3.79-3.252-6.9-6.95-7.874L258.402,0.31c-1.574-0.414-3.228-0.414-4.802,0L62.386,50.63
			c-3.698,0.974-6.443,4.082-6.95,7.874c-0.497,3.707-11.94,91.934,6.04,192.243c10.627,59.29,29.423,110.304,55.866,151.628
			c33.367,52.145,78.95,88.844,135.48,109.075c1.028,0.367,2.103,0.552,3.179,0.552c1.076,0,2.151-0.184,3.179-0.552
			c56.531-20.232,102.113-56.93,135.48-109.075c26.443-41.322,45.238-92.337,55.866-151.628
			C468.505,150.437,457.061,62.211,456.566,58.504z M431.952,247.418c-10.19,56.843-28.083,105.556-53.186,144.785
			C348.331,439.765,307.04,473.502,256,492.522c-50.971-18.993-92.215-52.662-122.637-100.119
			c-25.103-39.16-43.014-87.791-53.234-144.54c-14.877-82.607-8.923-158.789-6.691-180.628L256,19.191l182.565,48.044
			C440.798,89.012,446.748,164.866,431.952,247.418z"/>
	</g>
</g>
<g>
	<g>
		<path d="M256,98.124c-80.117,0-145.297,65.18-145.297,145.297S175.883,388.718,256,388.718s145.297-65.18,145.297-145.297
			S336.117,98.124,256,98.124z M256,369.849c-37.385,0-71.027-16.316-94.193-42.195c7.633-17.027,19.681-31.613,35.127-42.408
			c17.365-12.136,37.791-18.552,59.066-18.552s41.7,6.416,59.067,18.553c15.445,10.793,27.492,25.381,35.125,42.408
			C327.026,353.533,293.385,369.849,256,369.849z M212.496,204.32c0-23.989,19.516-43.504,43.504-43.504
			s43.504,19.515,43.504,43.504S279.987,247.824,256,247.824S212.496,228.309,212.496,204.32z M325.876,269.78
			c-9.919-6.933-20.685-12.27-31.992-15.955c14.874-11.41,24.489-29.351,24.489-49.503c0-34.393-27.98-62.373-62.373-62.373
			s-62.373,27.98-62.373,62.373c0,20.153,9.615,38.093,24.489,49.503c-11.308,3.686-22.074,9.024-31.993,15.956
			c-15.456,10.801-28.033,24.823-37.011,41.087c-12.367-19.533-19.539-42.667-19.539-67.447
			c0-69.713,56.715-126.428,126.428-126.428s126.427,56.715,126.427,126.428c0,24.78-7.172,47.914-19.54,67.447
			C353.909,294.603,341.332,280.581,325.876,269.78z"/>
	</g>
</g>
<g>
</g>
<g>
</g>
<g>
</g>
<g>
</g>
<g>
</g>
<g>
</g>
<g>
</g>
<g>
</g>
<g>
</g>
<g>
</g>
<g>
</g>
<g>
</g>
<g>
</g>
<g>
</g>
<g>
</g>
</svg>
