<?xml version="1.0" encoding="utf-8"?>
<!-- Generator: Adobe Illustrator 16.0.4, SVG Export Plug-In . SVG Version: 6.00 Build 0)  -->
<!DOCTYPE svg PUBLIC "-//W3C//DTD SVG 1.1//EN" "http://www.w3.org/Graphics/SVG/1.1/DTD/svg11.dtd">
<svg version="1.1" id="Capa_1" xmlns="http://www.w3.org/2000/svg" xmlns:xlink="http://www.w3.org/1999/xlink" x="0px" y="0px"
	 width="14.893px" height="12.404px" viewBox="0 0 14.893 12.404" enable-background="new 0 0 14.893 12.404" xml:space="preserve">
<g>
	<path d="M14.87,5.376c0.162-2.91-0.559-5.105-1.611-5.105c0.004,0,0.01,0,0.013,0L12.07,0c0,0-2.939,1.861-7.049,2.467
		c-0.16,0.649-0.283,1.375-0.333,2.277c-0.05,0.902-0.015,1.663,0.073,2.326c4.017,1.057,6.72,3.235,6.72,3.235l1.202-0.033
		c-0.004,0-0.009,0-0.013,0C13.725,10.271,14.708,8.287,14.87,5.376z M12.313,9.622c-0.136-0.007-0.273-0.157-0.346-0.245
		c-0.172-0.214-0.33-0.541-0.457-0.946c-0.289-0.905-0.408-2.104-0.338-3.377c0.07-1.272,0.322-2.451,0.709-3.318
		c0.173-0.388,0.365-0.696,0.561-0.89c0.08-0.08,0.234-0.212,0.371-0.205c0.136,0.007,0.275,0.157,0.347,0.245
		c0.171,0.214,0.329,0.541,0.459,0.946c0.287,0.906,0.406,2.105,0.335,3.377c-0.07,1.272-0.322,2.451-0.707,3.319
		c-0.174,0.389-0.367,0.696-0.562,0.89C12.604,9.496,12.45,9.629,12.313,9.622z M3.683,4.637c0.042-0.753,0.138-1.48,0.28-2.151
		C3.272,2.543,2.667,2.564,1.922,2.523c-0.97-0.054-0.97-0.054-0.97-0.054l-0.88,1.327L0,5.073L0.728,6.49c0,0,0,0,0.97,0.054
		c0.745,0.042,1.345,0.129,2.025,0.263C3.656,6.124,3.642,5.39,3.683,4.637z M5.198,7.816L3.363,7.357l0.927,4.725
		c0.048,0.244,0.28,0.379,0.517,0.299l1.755-0.592c0.237-0.079,0.343-0.329,0.237-0.555L5.198,7.816z M12.467,6.861
		c-0.052-0.003-0.104-0.06-0.132-0.094c-0.066-0.083-0.128-0.208-0.178-0.365c-0.109-0.35-0.156-0.812-0.129-1.302
		c0.027-0.491,0.125-0.944,0.273-1.279c0.066-0.149,0.141-0.268,0.215-0.342c0.031-0.031,0.092-0.083,0.143-0.08
		c0.053,0.003,0.107,0.061,0.135,0.095c0.066,0.082,0.127,0.208,0.176,0.364c0.112,0.35,0.156,0.811,0.13,1.302
		c-0.027,0.49-0.123,0.944-0.272,1.279c-0.066,0.15-0.142,0.268-0.216,0.343C12.58,6.813,12.52,6.864,12.467,6.861z"/>
</g>
</svg>
