<?xml version="1.0" encoding="utf-8"?>
<!-- Generator: Adobe Illustrator 19.2.1, SVG Export Plug-In . SVG Version: 6.00 Build 0)  -->
<svg version="1.1" id="Layer_1" xmlns="http://www.w3.org/2000/svg" xmlns:xlink="http://www.w3.org/1999/xlink" x="0px" y="0px"
	 viewBox="0 0 20 20" style="enable-background:new 0 0 20 20;" xml:space="preserve">
	<title>icon_plus</title>
	<path d="M17.7,0.4L10,8.1L2.3,0.4c-0.5-0.5-1.4-0.5-1.9,0s-0.5,1.4,0,1.9L8.1,10l-7.7,7.7c-0.5,0.5-0.5,1.4,0,1.9
		c0.5,0.5,1.4,0.5,1.9,0l7.7-7.7l7.7,7.7c0.5,0.5,1.4,0.5,1.9,0c0.5-0.5,0.5-1.4,0-1.9L11.9,10l7.7-7.7c0.5-0.5,0.5-1.4,0-1.9
		C19.1-0.1,18.2-0.1,17.7,0.4z"/>
</svg>
