<?xml version="1.0" encoding="iso-8859-1"?>
<!-- Generator: Adobe Illustrator 19.0.0, SVG Export Plug-In . SVG Version: 6.00 Build 0)  -->
<svg version="1.1" id="Layer_1" xmlns="http://www.w3.org/2000/svg" xmlns:xlink="http://www.w3.org/1999/xlink" x="0px" y="0px"
	 viewBox="0 0 512 512" style="enable-background:new 0 0 512 512;" xml:space="preserve">
<g transform="translate(1 1)">
	<g>
		<g>
			<path d="M442.733,301.916c-5.12,0-8.533,3.413-8.533,8.533c0,18.773-15.36,34.133-34.133,34.133c-5.12,0-8.533,3.413-8.533,8.533
				c0,5.12,3.413,8.533,8.533,8.533c28.16,0,51.2-23.04,51.2-51.2C451.267,305.329,447.853,301.916,442.733,301.916z"/>
			<path d="M408.6,267.783c0-5.12-3.413-8.533-8.533-8.533c-28.16,0-51.2,23.04-51.2,51.2c0,5.12,3.413,8.533,8.533,8.533
				s8.533-3.413,8.533-8.533c0-18.773,15.36-34.133,34.133-34.133C405.187,276.316,408.6,272.903,408.6,267.783z"/>
			<path d="M502.467,28.849H7.533C2.413,28.849-1,32.263-1,37.383v375.467c0,5.12,3.413,8.533,8.533,8.533H357.4v51.2
				c0,3.413,1.707,6.827,5.12,7.68c3.413,1.707,6.827,0.853,9.387-1.707l28.16-28.16l28.16,28.16c1.707,1.707,3.413,2.56,5.973,2.56
				c0.853,0,2.56,0,4.267-0.853c3.413-0.853,5.12-4.267,5.12-7.68v-51.2h58.88c5.12,0,8.533-3.413,8.533-8.533V37.383
				C511,32.263,507.587,28.849,502.467,28.849z M400.067,378.716c-16.319,0-31.344-5.808-43.122-15.452
				c-0.51-0.422-1.01-0.853-1.507-1.288c-0.132-0.115-0.266-0.228-0.397-0.344c-11.379-10.108-19.27-23.713-22.091-38.819
				c-0.064-0.345-0.128-0.69-0.186-1.037c-0.09-0.527-0.176-1.056-0.253-1.586c-0.116-0.805-0.223-1.613-0.311-2.426
				c-0.036-0.333-0.064-0.667-0.095-1.001c-0.071-0.769-0.132-1.541-0.178-2.318c-0.018-0.307-0.035-0.615-0.049-0.923
				c-0.046-1.02-0.078-2.043-0.078-3.073c0-37.547,30.72-68.267,68.267-68.267c1.03,0,2.052,0.033,3.071,0.078
				c0.311,0.014,0.621,0.031,0.93,0.049c0.76,0.044,1.517,0.105,2.27,0.174c0.417,0.039,0.833,0.078,1.248,0.125
				c0.725,0.08,1.446,0.174,2.164,0.277c0.601,0.088,1.199,0.184,1.796,0.288c0.218,0.037,0.435,0.078,0.652,0.117
				c20.6,3.79,38.433,17.108,48.455,36.438c0.3,0.6,0.683,1.144,1.122,1.634c4.197,8.837,6.558,18.698,6.558,29.086
				C468.333,347.996,437.613,378.716,400.067,378.716z M459.8,249.674c-14.463-14.218-33.923-23.365-55.425-24.448
				c-1.429-0.073-2.865-0.11-4.308-0.11c-46.933,0-85.333,38.4-85.333,85.333c0,1.443,0.037,2.879,0.11,4.308
				c1.083,21.502,10.23,40.963,24.448,55.425H83.48c-3.413-17.067-16.213-29.867-33.28-33.28V113.329
				c17.067-3.413,29.867-16.213,33.28-33.28h343.04c3.413,17.067,16.213,29.867,33.28,33.28V249.674z M425.667,452.103
				l-19.627-19.627c-1.707-1.707-3.413-2.56-5.973-2.56s-4.267,0.853-5.973,2.56l-19.627,19.627v-39.253v-20.48
				c16.213,5.12,34.987,5.12,51.2,0v20.48V452.103z M493.933,404.316h-50.347v-20.563c24.984-14.928,41.813-42.241,41.813-73.304
				c0-13.266-3.072-25.848-8.533-37.076V105.649c0-5.12-3.413-8.533-8.533-8.533c-14.507,0-25.6-11.093-25.6-25.6
				c0-5.12-3.413-8.533-8.533-8.533H75.8c-5.12,0-8.533,3.413-8.533,8.533c0,14.507-11.093,25.6-25.6,25.6
				c-5.12,0-8.533,3.413-8.533,8.533v238.933c0,5.12,3.413,8.533,8.533,8.533c14.507,0,25.6,11.093,25.6,25.6
				c0,5.12,3.413,8.533,8.533,8.533h281.6v17.067H16.067v-358.4h477.867V404.316z"/>
			<path d="M203.8,131.249h102.4c5.12,0,8.533-3.413,8.533-8.533s-3.413-8.533-8.533-8.533H203.8c-5.12,0-8.533,3.413-8.533,8.533
				S198.68,131.249,203.8,131.249z"/>
			<path d="M391.533,156.849H118.467c-5.12,0-8.533,3.413-8.533,8.533c0,5.12,3.413,8.533,8.533,8.533h273.067
				c5.12,0,8.533-3.413,8.533-8.533C400.067,160.263,396.653,156.849,391.533,156.849z"/>
			<path d="M391.533,199.516H118.467c-5.12,0-8.533,3.413-8.533,8.533s3.413,8.533,8.533,8.533h273.067
				c5.12,0,8.533-3.413,8.533-8.533S396.653,199.516,391.533,199.516z"/>
			<path d="M289.133,242.183H169.667c-5.12,0-8.533,3.413-8.533,8.533s3.413,8.533,8.533,8.533h119.467
				c5.12,0,8.533-3.413,8.533-8.533S294.253,242.183,289.133,242.183z"/>
			<path d="M118.467,259.249h17.067c5.12,0,8.533-3.413,8.533-8.533s-3.413-8.533-8.533-8.533h-17.067
				c-5.12,0-8.533,3.413-8.533,8.533S113.347,259.249,118.467,259.249z"/>
			<path d="M186.733,284.849h-68.267c-5.12,0-8.533,3.413-8.533,8.533c0,5.12,3.413,8.533,8.533,8.533h68.267
				c5.12,0,8.533-3.413,8.533-8.533C195.267,288.263,191.853,284.849,186.733,284.849z"/>
			<path d="M289.133,284.849h-68.267c-5.12,0-8.533,3.413-8.533,8.533c0,5.12,3.413,8.533,8.533,8.533h68.267
				c5.12,0,8.533-3.413,8.533-8.533C297.667,288.263,294.253,284.849,289.133,284.849z"/>
		</g>
	</g>
</g>
<g>
</g>
<g>
</g>
<g>
</g>
<g>
</g>
<g>
</g>
<g>
</g>
<g>
</g>
<g>
</g>
<g>
</g>
<g>
</g>
<g>
</g>
<g>
</g>
<g>
</g>
<g>
</g>
<g>
</g>
</svg>
