<?xml version="1.0" encoding="iso-8859-1"?>
<!-- Generator: Adobe Illustrator 19.0.0, SVG Export Plug-In . SVG Version: 6.00 Build 0)  -->
<svg version="1.1" id="Layer_1" xmlns="http://www.w3.org/2000/svg" xmlns:xlink="http://www.w3.org/1999/xlink" x="0px" y="0px"
	 viewBox="0 0 512 512" style="enable-background:new 0 0 512 512;" xml:space="preserve">
<g>
	<g>
		<path d="M324.267,443.733H187.733c-23.893,0-42.667,18.773-42.667,42.667c0,5.12,3.413,8.533,8.533,8.533h204.8
			c5.12,0,8.533-3.413,8.533-8.533C366.933,462.507,348.16,443.733,324.267,443.733z M163.84,477.867
			c3.413-10.24,12.8-17.067,23.893-17.067H325.12c11.093,0,20.48,6.827,23.893,17.067H163.84z"/>
	</g>
</g>
<g>
	<g>
		<path d="M324.267,450.56L307.2,382.293c-0.853-4.267-4.267-6.827-8.533-6.827h-85.333c-4.267,0-7.68,3.413-8.533,6.827
			l-17.067,68.267c0,2.56,0,5.12,1.707,6.827c1.707,2.56,4.267,3.413,6.827,3.413h119.467c2.56,0,5.12-0.853,6.827-2.56
			C324.267,455.68,325.12,453.12,324.267,450.56z M207.36,443.733l12.8-51.2h71.68l12.8,51.2H207.36z"/>
	</g>
</g>
<g>
	<g>
		<path d="M473.6,17.067H38.4c-21.333,0-38.4,17.067-38.4,38.4v260.267c0,5.12,3.413,8.533,8.533,8.533h494.933
			c5.12,0,8.533-3.413,8.533-8.533V55.467C512,34.133,494.933,17.067,473.6,17.067z M494.933,307.2H17.067V55.467
			c0-11.947,9.387-21.333,21.333-21.333h435.2c11.947,0,21.333,9.387,21.333,21.333V307.2z"/>
	</g>
</g>
<g>
	<g>
		<path d="M503.467,307.2H8.533c-5.12,0-8.533,3.413-8.533,8.533v38.4c0,21.333,17.067,38.4,38.4,38.4h435.2
			c21.333,0,38.4-17.067,38.4-38.4v-38.4C512,310.613,508.587,307.2,503.467,307.2z M494.933,354.133
			c0,11.947-9.387,21.333-21.333,21.333H38.4c-11.947,0-21.333-9.387-21.333-21.333v-29.867h477.867V354.133z"/>
	</g>
</g>
<g>
	<g>
		<path d="M290.133,247.467c-5.12,0-8.533,3.413-8.533,8.533v25.6c0,5.12,3.413,8.533,8.533,8.533s8.533-3.413,8.533-8.533V256
			C298.667,250.88,295.253,247.467,290.133,247.467z"/>
	</g>
</g>
<g>
	<g>
		<path d="M324.267,213.333c-5.12,0-8.533,3.413-8.533,8.533V281.6c0,5.12,3.413,8.533,8.533,8.533s8.533-3.413,8.533-8.533v-59.733
			C332.8,216.747,329.387,213.333,324.267,213.333z"/>
	</g>
</g>
<g>
	<g>
		<path d="M358.4,230.4c-5.12,0-8.533,3.413-8.533,8.533V281.6c0,5.12,3.413,8.533,8.533,8.533s8.533-3.413,8.533-8.533v-42.667
			C366.933,233.813,363.52,230.4,358.4,230.4z"/>
	</g>
</g>
<g>
	<g>
		<path d="M392.533,170.667c-5.12,0-8.533,3.413-8.533,8.533v102.4c0,5.12,3.413,8.533,8.533,8.533c5.12,0,8.533-3.413,8.533-8.533
			V179.2C401.067,174.08,397.653,170.667,392.533,170.667z"/>
	</g>
</g>
<g>
	<g>
		<path d="M426.667,204.8c-5.12,0-8.533,3.413-8.533,8.533V281.6c0,5.12,3.413,8.533,8.533,8.533s8.533-3.413,8.533-8.533v-68.267
			C435.2,208.213,431.787,204.8,426.667,204.8z"/>
	</g>
</g>
<g>
	<g>
		<path d="M149.333,68.267c-53.76,0-98.133,44.373-98.133,98.133c0,53.76,44.373,98.133,98.133,98.133
			c53.76,0,98.133-44.373,98.133-98.133C247.467,112.64,203.093,68.267,149.333,68.267z M149.333,247.467
			c-44.373,0-81.067-36.693-81.067-81.067c0-44.373,36.693-81.067,81.067-81.067c44.373,0,81.067,36.693,81.067,81.067
			C230.4,210.773,193.707,247.467,149.333,247.467z"/>
	</g>
</g>
<g>
	<g>
		<path d="M219.307,97.28c-19.627-19.627-46.933-29.867-74.24-29.013c-2.56,0-4.267,0.853-5.973,2.56s-2.56,3.413-2.56,5.973v93.867
			c0,4.267,3.413,8.533,8.533,8.533h93.867c1.707,0,4.267-0.853,6.827-1.707c1.707-1.707,2.56-3.413,2.56-5.973
			C249.173,143.36,238.933,116.907,219.307,97.28z M153.6,162.133v-76.8c20.48,0.853,38.4,9.387,52.907,23.893
			c14.507,14.507,23.04,32.427,23.893,52.907H153.6z"/>
	</g>
</g>
<g>
	<g>
		<path d="M214.187,227.84l-63.147-63.147c-3.413-3.413-8.533-3.413-11.947,0s-3.413,8.533,0,11.947l63.147,63.147
			c1.707,1.707,3.413,2.56,5.973,2.56c2.56,0,4.267-0.853,5.973-2.56C217.6,236.373,217.6,231.253,214.187,227.84z"/>
	</g>
</g>
<g>
	<g>
		<path d="M384,102.4h-68.267c-5.12,0-8.533,3.413-8.533,8.533c0,5.12,3.413,8.533,8.533,8.533H384c5.12,0,8.533-3.413,8.533-8.533
			C392.533,105.813,389.12,102.4,384,102.4z"/>
	</g>
</g>
<g>
	<g>
		<path d="M433.493,104.96c-0.853,0-0.853-0.853-1.707-0.853s-0.853-0.853-1.707-0.853c-0.853-0.853-0.853-0.853-1.707-0.853
			c-2.56,0-5.973,0.853-7.68,2.56s-2.56,3.413-2.56,5.973c0,1.707,0.853,2.56,0.853,3.413c0,0.853,0.853,1.707,1.707,2.56
			c1.707,1.707,3.413,2.56,5.973,2.56c0.853,0,0.853,0,1.707,0c0.853-0.853,0.853-0.853,1.707-0.853
			c0.853,0,1.707-0.853,1.707-0.853c0.853,0,1.707-0.853,1.707-0.853c0.853-0.853,0.853-1.707,1.707-2.56s0.853-2.56,0.853-3.413
			C436.053,108.373,435.2,106.667,433.493,104.96z"/>
	</g>
</g>
<g>
	<g>
		<path d="M426.667,59.733h-25.6c-5.12,0-8.533,3.413-8.533,8.533s3.413,8.533,8.533,8.533h25.6c5.12,0,8.533-3.413,8.533-8.533
			S431.787,59.733,426.667,59.733z"/>
	</g>
</g>
<g>
	<g>
		<path d="M332.8,59.733h-17.067c-5.12,0-8.533,3.413-8.533,8.533s3.413,8.533,8.533,8.533H332.8c5.12,0,8.533-3.413,8.533-8.533
			S337.92,59.733,332.8,59.733z"/>
	</g>
</g>
<g>
	<g>
		<path d="M373.76,62.293c-0.853,0-0.853-0.853-1.707-0.853s-0.853-0.853-1.707-0.853c-0.853-0.853-0.853-0.853-1.707-0.853
			c-1.707,0-2.56,0-3.413,0c-0.853,0.853-0.853,0.853-1.707,0.853c-0.853,0-0.853,0.853-1.707,0.853l-0.853,0.853
			c-0.853,0.853-1.707,1.707-1.707,2.56c-0.853,0.853-0.853,2.56-0.853,3.413c0,2.56,0.853,4.267,2.56,5.973l0.853,0.853
			c0.853,0,0.853,0.853,1.707,0.853c0.853,0.853,0.853,0.853,1.707,0.853s0.853,0,1.707,0s0.853,0,0.853,0
			c0.853-0.853,0.853-0.853,1.707-0.853s1.707-0.853,1.707-0.853c0.853,0,1.707-0.853,1.707-0.853
			c1.707-1.707,2.56-3.413,2.56-5.973c0-0.853,0-2.56,0-3.413C375.467,64,374.613,63.147,373.76,62.293z"/>
	</g>
</g>
<g>
</g>
<g>
</g>
<g>
</g>
<g>
</g>
<g>
</g>
<g>
</g>
<g>
</g>
<g>
</g>
<g>
</g>
<g>
</g>
<g>
</g>
<g>
</g>
<g>
</g>
<g>
</g>
<g>
</g>
</svg>
