<?xml version="1.0" encoding="utf-8"?>
<!-- Generator: Adobe Illustrator 16.0.4, SVG Export Plug-In . SVG Version: 6.00 Build 0)  -->
<!DOCTYPE svg PUBLIC "-//W3C//DTD SVG 1.1//EN" "http://www.w3.org/Graphics/SVG/1.1/DTD/svg11.dtd">
<svg version="1.1" id="Capa_1" xmlns="http://www.w3.org/2000/svg" xmlns:xlink="http://www.w3.org/1999/xlink" x="0px" y="0px"
	 width="13px" height="13px" viewBox="0 0 13 13" enable-background="new 0 0 13 13" xml:space="preserve">
<g>
	<path d="M10.725,0h-9.1C0.715,0,0,0.715,0,1.625v9.751C0,12.285,0.715,13,1.625,13h9.75C12.286,13,13,12.285,13,11.376V2.535
		L10.725,0z M9.75,4.875c0,0.455-0.391,0.78-0.781,0.78H4.03C3.64,5.72,3.25,5.33,3.25,4.875V0.78h6.5V4.875z M8.969,1.625H7.344
		v3.25h1.625V1.625z"/>
	<path d="M8.969,1.625H7.344v3.25h1.625V1.625z"/>
</g>
</svg>
