<?xml version="1.0" encoding="utf-8"?>
<!-- Generator: Adobe Illustrator 20.1.0, SVG Export Plug-In . SVG Version: 6.00 Build 0)  -->
<svg version="1.1" id="Layer_1" xmlns="http://www.w3.org/2000/svg" xmlns:xlink="http://www.w3.org/1999/xlink" x="0px" y="0px"
	 viewBox="0 0 100 100" style="enable-background:new 0 0 100 100;" xml:space="preserve">
	<g>
		<g>
			<path d="M92.1,7.9c-9.2-9.3-16.2-7.9-16.2-7.9L43.5,32.5l-37,37L0,100l30.5-6.5l37-37l32.4-32.4
				C99.9,24.1,101.3,17.2,92.1,7.9z M28.7,89.9l-10.4,2.2c-1-1.9-2.2-3.8-4.4-6c-2.2-2.2-4.1-3.4-6-4.4l2.2-10.4l3-3
				c0,0,5.7,0.1,12.1,6.5c6.4,6.4,6.5,12.1,6.5,12.1L28.7,89.9z"/>
		</g>
	</g>
</svg>
