<?xml version="1.0" encoding="iso-8859-1"?>
<!-- Generator: Adobe Illustrator 19.0.0, SVG Export Plug-In . SVG Version: 6.00 Build 0)  -->
<svg version="1.1" id="Layer_1" xmlns="http://www.w3.org/2000/svg" xmlns:xlink="http://www.w3.org/1999/xlink" x="0px" y="0px"
	 viewBox="0 0 512 512" style="enable-background:new 0 0 512 512;" xml:space="preserve">
<g>
	<g>
		<g>
			<path d="M9.162,495.832H8.084c-4.466,0-8.084,3.619-8.084,8.084C0,508.382,3.619,512,8.084,512h1.078
				c4.466,0,8.084-3.618,8.084-8.084C17.246,499.45,13.628,495.832,9.162,495.832z"/>
			<path d="M460.8,0H51.2C22.969,0,0,22.969,0,51.2v291.032c0,28.231,22.969,51.2,51.2,51.2h21.558c4.466,0,8.084-3.618,8.084-8.084
				c0-4.466-3.618-8.084-8.084-8.084H51.2c-19.317,0-35.032-15.715-35.032-35.032V51.2c0-19.317,15.715-35.032,35.032-35.032h409.6
				c19.317,0,35.032,15.715,35.032,35.032v291.032c0,12.468-6.714,24.097-17.522,30.35c-3.864,2.236-5.185,7.181-2.949,11.045
				c2.237,3.865,7.181,5.185,11.046,2.95C502.192,377.444,512,360.452,512,342.232V51.2C512,22.969,489.031,0,460.8,0z"/>
			<path d="M201.566,140.126c-4.466,0-8.084,3.618-8.084,8.084c0,4.466,3.618,8.084,8.084,8.084h1.078
				c4.466,0,8.084-3.618,8.084-8.084c0-4.466-3.619-8.084-8.084-8.084H201.566z"/>
			<path d="M439.242,334.147c-4.466,0-8.084,3.619-8.084,8.084c0,4.466,3.618,8.084,8.084,8.084
				c16.344,0,29.642-13.298,29.642-29.642V72.758c0-16.344-13.298-29.642-29.642-29.642H72.758
				c-16.344,0-29.642,13.298-29.642,29.642v247.916c0,16.344,13.298,29.642,29.642,29.642h21.558c4.466,0,8.084-3.618,8.084-8.084
				c0-4.466-3.619-8.084-8.084-8.084H72.758c-7.43,0-13.474-6.044-13.474-13.474V72.758c0-7.43,6.044-13.474,13.474-13.474h366.484
				c7.43,0,13.474,6.044,13.474,13.474v247.916C452.716,328.104,446.672,334.147,439.242,334.147z"/>
			<path d="M234.981,140.126c-4.466,0-8.084,3.618-8.084,8.084c0,4.466,3.618,8.084,8.084,8.084h75.453
				c4.466,0,8.084-3.618,8.084-8.084c0-4.466-3.618-8.084-8.084-8.084H234.981z"/>
			<path d="M471.579,495.832h-13.474v-67.368c0-43.258-26.274-80.492-63.699-96.592c-0.377-0.197-0.773-0.363-1.184-0.499
				c-1.305-0.543-2.621-1.064-3.953-1.554c21.791-12.583,36.499-36.118,36.499-63.039c0-40.119-32.639-72.758-72.758-72.758
				c-40.119,0-72.758,32.639-72.758,72.758c0,26.92,14.708,50.455,36.501,63.039c-1.331,0.49-2.647,1.012-3.953,1.554
				c-0.411,0.136-0.806,0.302-1.184,0.499c-15.37,6.612-28.858,16.787-39.419,29.482c-10.893-13.129-24.672-23.279-40.091-29.767
				c-0.124-0.053-0.246-0.106-0.373-0.151c-1.369-0.57-2.753-1.106-4.147-1.618c21.79-12.583,36.496-36.118,36.496-63.037
				c0-40.119-32.639-72.758-72.758-72.758h-10.779h-43.116c-28.231,0-51.2,22.969-51.2,51.2v21.558c0,4.466,3.619,8.084,8.084,8.084
				h24.714c2.611,23.502,16.459,43.649,36.038,54.954c-1.331,0.49-2.647,1.012-3.953,1.554c-0.411,0.136-0.806,0.302-1.184,0.499
				c-37.427,16.101-63.7,53.334-63.7,96.592v67.368h-45.81c-4.466,0-8.084,3.619-8.084,8.084c0,4.466,3.618,8.084,8.084,8.084
				h431.158c4.466,0,8.084-3.618,8.084-8.084C479.663,499.45,476.045,495.832,471.579,495.832z M353.01,323.368
				c-9.946,0-19.294-2.588-27.424-7.113c22.692-5.009,41.43-20.637,50.729-41.392h32.698
				C405.077,302.249,381.468,323.368,353.01,323.368z M381.699,344.313c-3.321,12.806-14.974,22.171-28.688,22.171
				c-13.714,0-25.367-9.364-28.688-22.171c9.008-3.081,18.651-4.776,28.688-4.776C363.048,339.537,372.691,341.232,381.699,344.313z
				 M309.895,301.811c-0.409,0-0.807,0.04-1.2,0.098c-7.674-9.659-12.274-21.863-12.274-35.13c0-31.203,25.387-56.589,56.589-56.589
				c28.459,0,52.067,21.119,56.003,48.505h-27.632c0.821-4.37,1.271-8.869,1.271-13.474c0-4.466-3.619-8.084-8.084-8.084
				s-8.084,3.618-8.084,8.084C366.484,276.424,341.098,301.811,309.895,301.811z M191.326,323.368
				c-9.946,0-19.294-2.588-27.424-7.113c22.692-5.009,41.429-20.637,50.729-41.392h32.698
				C243.393,302.249,219.784,323.368,191.326,323.368z M220.021,344.289c-3.312,12.819-14.972,22.195-28.695,22.195
				c-13.714,0-25.367-9.364-28.688-22.171c9.008-3.081,18.651-4.776,28.688-4.776C201.235,339.537,210.909,341.186,220.021,344.289z
				 M102.4,258.695v-13.474c0-19.317,15.715-35.032,35.032-35.032h35.032v13.474c0,19.317-15.715,35.032-35.032,35.032H102.4z
				 M148.21,301.811c-0.409,0-0.807,0.04-1.2,0.098c-6.086-7.66-10.232-16.921-11.688-27.045h2.108c28.231,0,51.2-22.969,51.2-51.2
				v-13.474h2.695c28.459,0,52.067,21.119,56.003,48.505h-27.632c0.821-4.37,1.271-8.869,1.271-13.474
				c0-4.466-3.619-8.084-8.084-8.084s-8.084,3.618-8.084,8.084C204.8,276.424,179.413,301.811,148.21,301.811z M247.916,428.463
				v67.368H102.4v-67.368c0-33.21,18.312-62.207,45.358-77.477c5.981,18.447,23.318,31.666,43.568,31.666
				c20.267,0,37.615-13.24,43.585-31.711c10.638,5.983,20.056,14.168,27.576,24.192
				C253.235,390.778,247.916,409.009,247.916,428.463z M441.937,495.832H264.084v-67.368c0-33.21,18.312-62.207,45.358-77.477
				c5.981,18.447,23.317,31.666,43.568,31.666c20.252,0,37.587-13.219,43.569-31.666c27.045,15.269,45.358,44.267,45.358,77.477
				V495.832z"/>
			<path d="M355.705,105.095c0-4.466-3.618-8.084-8.084-8.084H164.379c-4.466,0-8.084,3.618-8.084,8.084
				c0,4.466,3.618,8.084,8.084,8.084h183.242C352.087,113.179,355.705,109.56,355.705,105.095z"/>
		</g>
	</g>
</g>
<g>
</g>
<g>
</g>
<g>
</g>
<g>
</g>
<g>
</g>
<g>
</g>
<g>
</g>
<g>
</g>
<g>
</g>
<g>
</g>
<g>
</g>
<g>
</g>
<g>
</g>
<g>
</g>
<g>
</g>
</svg>
