<?xml version="1.0" encoding="utf-8"?>
<!-- Generator: Adobe Illustrator 20.1.0, SVG Export Plug-In . SVG Version: 6.00 Build 0)  -->
<svg version="1.1" id="Layer_1" xmlns="http://www.w3.org/2000/svg" xmlns:xlink="http://www.w3.org/1999/xlink" x="0px" y="0px"
	 viewBox="0 0 100 100" style="enable-background:new 0 0 100 100;" xml:space="preserve">
	<g>
		<path d="M49.5,0C21.9,0.4-0.2,23.1,0.2,50.7c0.4,27.6,23.1,49.7,50.7,49.3c27.6-0.4,49.7-23.1,49.3-50.7
			C99.8,21.7,77.1-0.4,49.5,0z M55.1,16.7c5.1,0,6.6,2.9,6.6,6.3c0,4.2-3.4,8.1-9.1,8.1c-4.8,0-7.1-2.4-7-6.4
			C45.5,21.3,48.4,16.7,55.1,16.7z M42,81.3c-3.5,0-6-2.1-3.6-11.4l4-16.4c0.7-2.6,0.8-3.7,0-3.7c-1,0-5.6,1.8-8.2,3.6l-1.7-2.8
			c8.4-7.1,18.2-11.2,22.3-11.2c3.5,0,4.1,4.1,2.3,10.4L52.6,67c-0.8,3.1-0.5,4.1,0.3,4.1c1,0,4.5-1.3,7.8-3.9l2,2.6
			C54.5,78.1,45.5,81.3,42,81.3z"/>
	</g>
</svg>
