<?xml version="1.0" encoding="utf-8"?>
<!-- Generator: Adobe Illustrator 16.0.4, SVG Export Plug-In . SVG Version: 6.00 Build 0)  -->
<!DOCTYPE svg PUBLIC "-//W3C//DTD SVG 1.1//EN" "http://www.w3.org/Graphics/SVG/1.1/DTD/svg11.dtd">
<svg version="1.1" xmlns="http://www.w3.org/2000/svg" xmlns:xlink="http://www.w3.org/1999/xlink" x="0px" y="0px"
	 width="280.852px" height="280.848px" viewBox="0 0 280.852 280.848" enable-background="new 0 0 280.852 280.848"
	 xml:space="preserve">
<g id="Layer_1">
	<rect x="-94.574" y="-9.521" opacity="0" fill="#FFFFFF" width="470" height="300"/>
</g>
<g id="Layer_2">
	<g>
		<path fill-rule="evenodd" clip-rule="evenodd" fill="#FFFFFF" d="M222.284,0H58.57C26.221,0,0,26.223,0,58.569v163.712
			c0,32.342,26.221,58.566,58.57,58.566h31.36c0.616-2.201,1.265-4.389,1.977-6.564c6.241-19.123,12.709-38.16,18.958-57.277
			c0.919-2.812,4.278-16.721,2.497-25.148c-1.033-4.893-2.54-8.635-3.641-9.699c-8.591-8.334-32.647-12.725-37.092-28.457
			c-2.416-8.521,3.217-28.627,0.085-36.541c-3.562-9.012-11.201-27.093-9.036-32.73c2.761-7.214,16.593,3.657,27.708,11.186
			c1.398,0.95,2.949,1.556,4.57,1.892L95.512,81.09L51.469,64.753l84.57-39.667l84.568,39.667l-3.502,1.295l0.432,24.041
			c0.438,0.217,0.826,0.572,1.065,1.104c0.426,0.938,0.252,2.011-0.326,2.71l6.441,15.639c0,0-7.124,6.332-16.291,0.315
			l6.971-16.093c-0.114-0.146-0.24-0.282-0.325-0.47c-0.452-0.989-0.227-2.138,0.444-2.82l-0.423-23.68l-38.85,14.416l0.375,14.096
			c0,0,0.818,3.72,5.845,0.312c11.115-7.529,24.944-18.4,27.707-11.186c2.163,5.637-5.474,23.718-9.035,32.73
			c-3.135,7.914,2.5,28.019,0.084,36.541c-4.445,15.732-28.502,20.123-37.092,28.457c-1.2,1.166-2.683,5.557-3.944,11.053
			c-1.617,7.074,3.738,24.418,5.518,29.607c6.607,19.27,13.151,38.555,19.057,58.029h18.69c-1.479-4.764-2.941-9.529-4.289-14.326
			c-3.06-10.891-6.212-21.828-8.095-32.947c-2.49-14.787,7.259-28.432,20.077-29.676c7.401-0.725,14.867,4.543,15.75,11.121
			c0.715,5.377-1.797,8.412-6.82,10.049c-12.42,4.047-14.485,6.154-11.823,19.1c2.535,12.35,7.461,24.203,11,36.373
			c0.029,0.102,0.059,0.205,0.092,0.307h2.944c32.348,0,58.568-26.225,58.568-58.566V58.569C280.852,26.223,254.631,0,222.284,0z"/>
	</g>
</g>
</svg>
