<?xml version="1.0" encoding="utf-8"?>
<!-- Generator: Adobe Illustrator 16.0.4, SVG Export Plug-In . SVG Version: 6.00 Build 0)  -->
<!DOCTYPE svg PUBLIC "-//W3C//DTD SVG 1.1//EN" "http://www.w3.org/Graphics/SVG/1.1/DTD/svg11.dtd">
<svg version="1.1" id="Capa_1" xmlns="http://www.w3.org/2000/svg" xmlns:xlink="http://www.w3.org/1999/xlink" x="0px" y="0px"
	 width="100px" height="20px" viewBox="0 0 100 20" enable-background="new 0 0 100 20" xml:space="preserve">
<g>
	<path d="M3.868,2.226h4.778c0.091,0.227,0.136,0.446,0.136,0.658c0,0.189-0.038,0.322-0.114,0.397
		C8.593,3.357,8.46,3.395,8.271,3.395H7.466c-0.053,1.052-0.08,2.849-0.08,5.391h6.729c-0.007-2.542-0.038-4.339-0.091-5.391h-1.168
		c-0.099-0.257-0.148-0.496-0.148-0.715c0-0.159,0.04-0.274,0.119-0.346c0.08-0.072,0.21-0.108,0.392-0.108h4.778
		c0.091,0.227,0.136,0.446,0.136,0.658c0,0.189-0.038,0.322-0.113,0.397c-0.076,0.076-0.208,0.114-0.397,0.114h-0.919
		c-0.053,1.052-0.079,2.784-0.079,5.198c0,4.252,0.03,6.903,0.091,7.955h1.282c0.091,0.228,0.136,0.446,0.136,0.658
		c0,0.189-0.038,0.321-0.113,0.397c-0.076,0.076-0.208,0.113-0.397,0.113h-4.766c-0.099-0.258-0.148-0.496-0.148-0.715
		c0-0.159,0.04-0.274,0.119-0.346c0.08-0.072,0.21-0.108,0.392-0.108h0.806c0.053-0.893,0.083-2.992,0.091-6.298H7.386
		c0.007,3.299,0.038,5.398,0.091,6.298h1.169c0.091,0.228,0.136,0.446,0.136,0.658c0,0.189-0.038,0.321-0.114,0.397
		s-0.208,0.113-0.397,0.113H3.505c-0.098-0.258-0.147-0.496-0.147-0.715c0-0.159,0.04-0.274,0.119-0.346
		c0.08-0.072,0.21-0.108,0.392-0.108h0.919c0.06-1.052,0.091-3.749,0.091-8.091C4.871,6.134,4.84,4.447,4.788,3.395H3.505
		C3.407,3.138,3.357,2.899,3.357,2.68c0-0.159,0.04-0.274,0.119-0.346C3.556,2.262,3.687,2.226,3.868,2.226z"/>
	<path d="M32.705,3.395c-0.771,1.43-2.292,4.521-4.562,9.271c0,1.537,0.026,2.83,0.08,3.882h1.68
		c0.098,0.228,0.147,0.446,0.147,0.658c0,0.189-0.038,0.321-0.114,0.397s-0.212,0.113-0.408,0.113H23.91
		c-0.091-0.258-0.136-0.496-0.136-0.715c0-0.159,0.04-0.274,0.119-0.346c0.08-0.072,0.21-0.108,0.392-0.108h1.248
		c0.061-1.052,0.091-2.273,0.091-3.665c-2.489-4.994-4.116-8.156-4.88-9.488h-0.885c-0.091-0.257-0.136-0.496-0.136-0.715
		c0-0.159,0.04-0.274,0.119-0.346c0.079-0.072,0.21-0.108,0.392-0.108h4.573c0.091,0.227,0.136,0.446,0.136,0.658
		c0,0.189-0.038,0.322-0.114,0.397c-0.076,0.076-0.208,0.114-0.397,0.114h-0.579c0.333,0.999,0.947,2.527,1.844,4.585
		c0.897,2.058,1.387,3.086,1.47,3.086c0.083,0,0.52-1,1.311-3.001c0.791-2.001,1.333-3.558,1.628-4.67h-0.987
		c-0.099-0.257-0.147-0.496-0.147-0.715c0-0.159,0.04-0.274,0.119-0.346c0.079-0.072,0.21-0.108,0.392-0.108h4.119
		c0.091,0.227,0.136,0.446,0.136,0.658c0,0.189-0.038,0.322-0.113,0.397c-0.076,0.076-0.208,0.114-0.397,0.114H32.705z"/>
	<path d="M36.881,3.395h-1.316c-0.091-0.257-0.136-0.496-0.136-0.715c0-0.159,0.04-0.274,0.119-0.346s0.21-0.108,0.392-0.108h4.54
		c2.837,0,4.745,0.348,5.725,1.044c0.98,0.696,1.47,1.835,1.47,3.416c0,1.642-0.586,2.917-1.759,3.824
		c-1.172,0.908-3.125,1.362-5.855,1.362h-0.579c0.015,2.331,0.045,3.89,0.091,4.676h1.736c0.091,0.228,0.136,0.446,0.136,0.658
		c0,0.189-0.038,0.321-0.113,0.397s-0.208,0.113-0.397,0.113h-5.447c-0.098-0.258-0.147-0.496-0.147-0.715
		c0-0.159,0.04-0.274,0.119-0.346c0.08-0.072,0.21-0.108,0.392-0.108h1.033c0.061-1.052,0.091-3.749,0.091-8.091
		C36.972,6.134,36.941,4.447,36.881,3.395z M40.399,10.442c1.665,0,2.83-0.238,3.495-0.715c0.666-0.477,0.999-1.283,0.999-2.417
		c0-1.089-0.314-1.933-0.942-2.531c-0.628-0.597-1.657-0.896-3.087-0.896c-0.477,0-0.908,0.038-1.294,0.114
		c-0.061,0.65-0.091,2.183-0.091,4.596v1.85H40.399z"/>
	<path d="M54.789,2.056c0.855,0,1.339,0.032,1.453,0.097c0.113,0.064,0.877,2.179,2.292,6.344s2.372,6.849,2.871,8.052h0.999
		c0.09,0.228,0.136,0.446,0.136,0.658c0,0.189-0.038,0.321-0.113,0.397c-0.076,0.076-0.208,0.113-0.397,0.113H57.32
		c-0.1-0.258-0.148-0.496-0.148-0.715c0-0.159,0.04-0.274,0.119-0.346c0.08-0.072,0.211-0.108,0.392-0.108h0.613
		c-0.144-0.673-0.507-1.967-1.09-3.882h-5.118c-0.529,1.9-0.848,3.193-0.953,3.882h1.055c0.092,0.228,0.137,0.446,0.137,0.658
		c0,0.189-0.037,0.321-0.113,0.397s-0.208,0.113-0.397,0.113H47.64c-0.091-0.258-0.136-0.496-0.136-0.715
		c0-0.159,0.04-0.274,0.119-0.346c0.079-0.072,0.21-0.108,0.392-0.108h0.658c0.499-1.377,1.328-3.864,2.485-7.461
		c1.157-3.598,1.872-5.669,2.146-6.213C53.574,2.328,54.07,2.056,54.789,2.056z M52.485,11.203h4.278
		c-1.377-4.381-2.117-6.571-2.219-6.571S53.756,6.822,52.485,11.203z"/>
	<path d="M66.455,16.548c0.061-1.052,0.091-3.749,0.091-8.091c0-2.323-0.03-3.912-0.091-4.767c-2.686,0.114-4.203,0.17-4.551,0.17
		c-0.333,0-0.563-0.053-0.691-0.159C61.084,3.596,61.02,3.395,61.02,3.1c0-0.424,0.105-0.885,0.317-1.385
		c1.286,0.34,3.151,0.511,5.595,0.511h7.093c0.333,0,0.565,0.055,0.698,0.165c0.133,0.11,0.199,0.309,0.199,0.596
		c0,0.53-0.156,1.033-0.466,1.509c-1.264-0.537-2.905-0.806-4.925-0.806h-0.387c-0.061,0.855-0.09,2.489-0.09,4.903
		c0,4.252,0.029,6.903,0.09,7.955h1.623c0.091,0.228,0.137,0.446,0.137,0.658c0,0.189-0.039,0.321-0.113,0.397
		c-0.076,0.076-0.209,0.113-0.398,0.113h-5.561c-0.098-0.258-0.146-0.496-0.146-0.715c0-0.159,0.039-0.274,0.119-0.346
		c0.078-0.072,0.209-0.108,0.391-0.108H66.455z"/>
	<path d="M76.68,2.226h5.119c0.09,0.227,0.136,0.446,0.136,0.658c0,0.189-0.038,0.322-0.113,0.397
		c-0.075,0.076-0.208,0.114-0.397,0.114h-1.033c-0.053,1.052-0.079,2.784-0.079,5.198c0,4.252,0.03,6.903,0.091,7.955h1.396
		c0.09,0.228,0.136,0.446,0.136,0.658c0,0.189-0.038,0.321-0.113,0.397s-0.208,0.113-0.397,0.113h-5.107
		c-0.098-0.258-0.146-0.496-0.146-0.715c0-0.159,0.039-0.274,0.119-0.346c0.079-0.072,0.209-0.108,0.391-0.108h1.033
		c0.061-1.052,0.091-3.749,0.091-8.091c-0.008-2.323-0.038-4.01-0.091-5.062h-1.396C76.219,3.138,76.17,2.899,76.17,2.68
		c0-0.159,0.039-0.274,0.119-0.346C76.368,2.262,76.498,2.226,76.68,2.226z"/>
	<path d="M90.525,2.056c0.855,0,1.339,0.032,1.453,0.097c0.113,0.064,0.877,2.179,2.292,6.344s2.372,6.849,2.871,8.052h0.999
		c0.09,0.228,0.136,0.446,0.136,0.658c0,0.189-0.038,0.321-0.113,0.397c-0.076,0.076-0.208,0.113-0.397,0.113h-4.709
		c-0.1-0.258-0.148-0.496-0.148-0.715c0-0.159,0.04-0.274,0.119-0.346c0.08-0.072,0.211-0.108,0.392-0.108h0.613
		c-0.144-0.673-0.507-1.967-1.09-3.882h-5.118c-0.529,1.9-0.848,3.193-0.953,3.882h1.055c0.092,0.228,0.137,0.446,0.137,0.658
		c0,0.189-0.037,0.321-0.113,0.397s-0.208,0.113-0.397,0.113h-4.176c-0.091-0.258-0.136-0.496-0.136-0.715
		c0-0.159,0.039-0.274,0.119-0.346c0.078-0.072,0.209-0.108,0.391-0.108h0.658c0.5-1.377,1.328-3.864,2.485-7.461
		c1.157-3.598,1.872-5.669,2.146-6.213C89.311,2.328,89.807,2.056,90.525,2.056z M88.222,11.203H92.5
		c-1.377-4.381-2.117-6.571-2.219-6.571S89.492,6.822,88.222,11.203z"/>
</g>
<g>
</g>
<g>
</g>
<g>
</g>
<g>
</g>
<g>
</g>
<g>
</g>
<g>
</g>
<g>
</g>
<g>
</g>
<g>
</g>
<g>
</g>
<g>
</g>
<g>
</g>
<g>
</g>
<g>
</g>
</svg>
