<?xml version="1.0" encoding="utf-8"?>
<!-- Generator: Adobe Illustrator 16.0.4, SVG Export Plug-In . SVG Version: 6.00 Build 0)  -->
<!DOCTYPE svg PUBLIC "-//W3C//DTD SVG 1.1//EN" "http://www.w3.org/Graphics/SVG/1.1/DTD/svg11.dtd">
<svg version="1.1" id="Capa_1" xmlns="http://www.w3.org/2000/svg" xmlns:xlink="http://www.w3.org/1999/xlink" x="0px" y="0px"
	 width="100px" height="20px" viewBox="0 0 100 20" enable-background="new 0 0 100 20" xml:space="preserve">
<g>
	<path d="M4.095,2.226h3.609c1.218,2.202,2.366,4.208,3.444,6.021s2.252,3.974,3.523,6.486V8.457c0-2.323-0.026-4.01-0.079-5.062
		h-1.169c-0.099-0.257-0.148-0.496-0.148-0.715c0-0.159,0.04-0.274,0.12-0.346c0.079-0.072,0.209-0.108,0.391-0.108h4.267
		c0.091,0.227,0.136,0.446,0.136,0.658c0,0.189-0.038,0.322-0.113,0.397c-0.076,0.076-0.208,0.114-0.397,0.114H16.76
		c-0.053,1.052-0.08,2.784-0.08,5.198v8.204c0,0.447-0.066,0.73-0.199,0.852s-0.441,0.182-0.925,0.182
		c-0.938,0-1.477-0.035-1.617-0.107s-1.059-1.477-2.758-4.217C9.484,10.768,8.06,8.207,6.91,5.824c0,6.098,0.026,9.672,0.08,10.724
		h1.112c0.098,0.228,0.147,0.446,0.147,0.658c0,0.189-0.038,0.321-0.113,0.397s-0.212,0.113-0.409,0.113H3.505
		c-0.098-0.258-0.147-0.496-0.147-0.715c0-0.159,0.04-0.274,0.119-0.346c0.08-0.072,0.21-0.108,0.392-0.108h0.953
		c0.053-1.052,0.08-3.749,0.08-8.091c0-2.323-0.03-4.01-0.091-5.062H3.732C3.634,3.138,3.584,2.899,3.584,2.68
		c0-0.159,0.04-0.274,0.119-0.346S3.914,2.226,4.095,2.226z"/>
	<path d="M20.97,2.226h9.714c0.431,0,0.726,0.061,0.885,0.182c0.159,0.121,0.238,0.363,0.238,0.726c0,0.462-0.144,0.938-0.431,1.43
		c-1.43-0.583-3.397-0.874-5.901-0.874h-0.987c-0.053,0.855-0.076,2.554-0.068,5.096h5.935c0.098,0.295,0.147,0.605,0.147,0.931
		c0,0.212-0.038,0.354-0.113,0.425c-0.076,0.072-0.223,0.108-0.443,0.108h-5.538c0.008,3.268,0.034,5.27,0.08,6.003h1.589
		c2.413,0,4.309-0.265,5.686-0.794c0.242,0.416,0.363,0.847,0.363,1.293c0,0.333-0.11,0.577-0.329,0.732
		c-0.22,0.154-0.666,0.232-1.339,0.232l-9.851,0.012c-0.098-0.258-0.147-0.5-0.147-0.727c0-0.151,0.04-0.263,0.119-0.335
		c0.08-0.071,0.21-0.108,0.392-0.108h0.84c0.053-1.059,0.08-3.76,0.08-8.102c0-2.323-0.027-4.01-0.08-5.062h-1.203
		c-0.098-0.257-0.147-0.496-0.147-0.715c0-0.159,0.04-0.274,0.119-0.346C20.658,2.262,20.789,2.226,20.97,2.226z"/>
	<path d="M43.577,2.237l4.097-0.011c0.098,0.227,0.147,0.446,0.147,0.658c0,0.189-0.038,0.322-0.113,0.397
		c-0.076,0.076-0.212,0.114-0.409,0.114h-0.613l-4.959,5.198c2.156,3.382,3.48,5.427,3.972,6.134s0.887,1.188,1.186,1.441
		s0.656,0.38,1.072,0.38c0.144,0.522,0.129,0.886-0.045,1.089c-0.174,0.205-0.632,0.307-1.373,0.307
		c-0.908,0-1.526-0.102-1.855-0.307c-0.329-0.203-0.673-0.665-1.033-1.384s-1.496-2.776-3.41-6.174l-2.031,2.417
		c0.007,1.861,0.034,3.212,0.079,4.052h1.226c0.091,0.228,0.136,0.446,0.136,0.658c0,0.189-0.038,0.321-0.113,0.397
		s-0.208,0.113-0.397,0.113h-4.937c-0.098-0.258-0.147-0.496-0.147-0.715c0-0.159,0.04-0.274,0.119-0.346
		c0.08-0.072,0.21-0.108,0.392-0.108h1.033c0.061-1.052,0.091-3.749,0.091-8.091c0-2.323-0.03-4.01-0.091-5.062h-1.396
		c-0.091-0.257-0.136-0.496-0.136-0.715c0-0.159,0.04-0.274,0.119-0.346c0.08-0.072,0.21-0.108,0.392-0.108h4.937
		c0.099,0.227,0.148,0.446,0.148,0.658c0,0.189-0.038,0.322-0.114,0.397c-0.076,0.076-0.212,0.114-0.409,0.114h-0.851
		c-0.053,1.052-0.079,3.31-0.079,6.775c0.862-0.908,1.854-1.976,2.973-3.206c1.12-1.229,2.126-2.415,3.019-3.558h-0.987
		c-0.098-0.257-0.147-0.499-0.147-0.726c0-0.151,0.04-0.263,0.119-0.335S43.395,2.237,43.577,2.237z"/>
	<path d="M48.979,10.737c0-2.98,0.619-5.182,1.855-6.604c1.236-1.422,2.982-2.134,5.237-2.134c2.058,0,3.624,0.517,4.698,1.549
		s1.611,2.918,1.611,5.657c0,2.981-0.618,5.183-1.855,6.605c-1.236,1.422-2.982,2.133-5.237,2.133c-2.058,0-3.624-0.514-4.698-1.543
		S48.979,13.484,48.979,10.737z M51.759,9.693c0,2.527,0.343,4.258,1.027,5.191c0.685,0.936,1.7,1.402,3.047,1.402
		c1.249,0,2.188-0.473,2.82-1.419c0.632-0.945,0.947-2.485,0.947-4.619c0-2.557-0.343-4.295-1.026-5.215
		c-0.686-0.919-1.701-1.379-3.047-1.379c-1.249,0-2.189,0.473-2.82,1.419C52.074,6.021,51.759,7.56,51.759,9.693z"/>
	<path d="M65.468,2.226h4.665c0.362,1.316,0.869,2.989,1.52,5.016c0.65,2.028,1.158,3.683,1.521,4.965s0.57,1.924,0.624,1.924
		c0.053,0,0.56-1.631,1.521-4.892s1.604-5.598,1.93-7.013h4.596c0.091,0.227,0.137,0.446,0.137,0.658
		c0,0.189-0.039,0.322-0.113,0.397c-0.076,0.076-0.209,0.114-0.398,0.114h-0.748c-0.031,1.392-0.008,3.669,0.068,6.832
		c0.074,3.162,0.15,5.27,0.227,6.321h1.101c0.099,0.228,0.147,0.446,0.147,0.658c0,0.189-0.038,0.321-0.113,0.397
		c-0.076,0.076-0.212,0.113-0.408,0.113h-4.449c-0.098-0.258-0.147-0.496-0.147-0.715c0-0.159,0.04-0.274,0.119-0.346
		c0.079-0.072,0.21-0.108,0.392-0.108h0.67c0.061-1.316,0.033-5.318-0.08-12.007c-0.59,2.27-1.271,4.581-2.043,6.934
		c-0.771,2.354-1.281,3.746-1.531,4.177s-0.654,0.647-1.215,0.647c-0.802,0-1.25-0.031-1.345-0.092s-0.602-1.383-1.521-3.966
		c-0.92-2.583-1.727-5.169-2.423-7.757c-0.022,6.727-0.008,10.747,0.046,12.063h1.055c0.091,0.228,0.137,0.446,0.137,0.658
		c0,0.189-0.039,0.321-0.113,0.397c-0.076,0.076-0.209,0.113-0.398,0.113h-4.176c-0.091-0.258-0.137-0.496-0.137-0.715
		c0-0.159,0.041-0.274,0.119-0.346c0.08-0.072,0.211-0.108,0.393-0.108h0.828c0.083-1.052,0.16-3.159,0.232-6.321
		s0.101-5.439,0.086-6.832h-1.146c-0.092-0.257-0.137-0.496-0.137-0.715c0-0.159,0.04-0.274,0.119-0.346
		C65.156,2.262,65.286,2.226,65.468,2.226z"/>
	<path d="M96.653,3.395c-0.771,1.43-2.292,4.521-4.562,9.271c0,1.537,0.025,2.83,0.079,3.882h1.68
		c0.099,0.228,0.147,0.446,0.147,0.658c0,0.189-0.038,0.321-0.113,0.397c-0.076,0.076-0.213,0.113-0.408,0.113h-5.618
		c-0.091-0.258-0.136-0.496-0.136-0.715c0-0.159,0.039-0.274,0.119-0.346c0.079-0.072,0.209-0.108,0.391-0.108h1.248
		c0.061-1.052,0.092-2.273,0.092-3.665c-2.49-4.994-4.116-8.156-4.881-9.488h-0.885c-0.09-0.257-0.136-0.496-0.136-0.715
		c0-0.159,0.04-0.274,0.119-0.346S84,2.226,84.182,2.226h4.573c0.091,0.227,0.136,0.446,0.136,0.658
		c0,0.189-0.037,0.322-0.113,0.397c-0.076,0.076-0.208,0.114-0.396,0.114h-0.579c0.333,0.999,0.947,2.527,1.844,4.585
		c0.897,2.058,1.387,3.086,1.47,3.086c0.084,0,0.52-1,1.311-3.001s1.334-3.558,1.629-4.67h-0.987
		C92.969,3.138,92.92,2.899,92.92,2.68c0-0.159,0.039-0.274,0.119-0.346c0.079-0.072,0.21-0.108,0.392-0.108h4.119
		c0.091,0.227,0.136,0.446,0.136,0.658c0,0.189-0.037,0.322-0.113,0.397c-0.075,0.076-0.208,0.114-0.396,0.114H96.653z"/>
</g>
<g>
</g>
<g>
</g>
<g>
</g>
<g>
</g>
<g>
</g>
<g>
</g>
<g>
</g>
<g>
</g>
<g>
</g>
<g>
</g>
<g>
</g>
<g>
</g>
<g>
</g>
<g>
</g>
<g>
</g>
</svg>
