<?xml version="1.0" encoding="utf-8"?>
<!-- Generator: Adobe Illustrator 20.1.0, SVG Export Plug-In . SVG Version: 6.00 Build 0)  -->
<svg version="1.1" id="Layer_1" xmlns="http://www.w3.org/2000/svg" xmlns:xlink="http://www.w3.org/1999/xlink" x="0px" y="0px"
	 viewBox="0 0 70 100" style="enable-background:new 0 0 70 100;" xml:space="preserve">
	<g>
		<path d="M-817.5,1029.6h-38.7c-6.8,0-12.6-5.2-12.9-12c-0.3-7.2,5.4-13.2,12.6-13.2h38.6c7.1,0,12.8,5.7,12.8,12.8v0
			C-805.1,1024.1-810.7,1029.6-817.5,1029.6z"/>
	</g>
	<g>
		<path d="M-1381.4,751.3c-5.5,0-10,4.5-10,10c0,5.5,4.5,10,10,10c5.5,0,10-4.5,10-10
			C-1371.4,755.8-1375.9,751.3-1381.4,751.3z M-1380.2,762.5v4.8h-2.4v-4.8h-4.8v-2.4h4.8l0-4.8l2.4,0v4.8l4.8,0l0,2.4H-1380.2z"/>
	</g>
	<g>
		<path d="M-329.4,1508.3c-5.5,0-10,4.5-10,10c0,5.5,4.5,10,10,10c5.5,0,10-4.5,10-10
			C-319.4,1512.8-323.9,1508.3-329.4,1508.3z M-328.2,1519.5v4.8h-2.4v-4.8h-4.8v-2.4h4.8l0-4.8l2.4,0v4.8l4.8,0l0,2.4H-328.2z"/>
	</g>
	<g>
		<line x1="1493.9" y1="-1358.2" x2="1477.9" y2="-1374.2"/>
		<line x1="1493.9" y1="-1374.2" x2="1477.9" y2="-1358.2"/>
	</g>
	<g>
		<path d="M-850.5,989.6h-38.7c-6.8,0-12.6-5.2-12.9-12c-0.3-7.2,5.4-13.2,12.6-13.2h38.6c7.1,0,12.8,5.7,12.8,12.8v0
			C-838.1,984.1-843.7,989.6-850.5,989.6z"/>
	</g>
	<g>
		<path d="M-1414.4,711.3c-5.5,0-10,4.5-10,10c0,5.5,4.5,10,10,10c5.5,0,10-4.5,10-10
			C-1404.4,715.8-1408.9,711.3-1414.4,711.3z M-1413.2,722.5v4.8h-2.4v-4.8h-4.8v-2.4h4.8l0-4.8l2.4,0v4.8l4.8,0l0,2.4H-1413.2z"/>
	</g>
	<g>
		<path d="M-362.4,1468.3c-5.5,0-10,4.5-10,10c0,5.5,4.5,10,10,10c5.5,0,10-4.5,10-10
			C-352.4,1472.8-356.9,1468.3-362.4,1468.3z M-361.2,1479.5v4.8h-2.4v-4.8h-4.8v-2.4h4.8l0-4.8l2.4,0v4.8l4.8,0l0,2.4H-361.2z"/>
	</g>
	<g>
		<line x1="1460.9" y1="-1398.2" x2="1444.9" y2="-1414.2"/>
		<line x1="1460.9" y1="-1414.2" x2="1444.9" y2="-1398.2"/>
	</g>
	<polygon points="53,20 57.5,10 46.6,10 43,0 27,0 23.4,10 12.5,10 17,20 "/>
	<path d="M63,10l-6,15H13L7,10c-3.8,0-7,3.1-7,7v76c0,3.8,3.2,7,7,7h56c3.8,0,7-3.2,7-7V17C70,13.1,66.8,10,63,10z
		 M60,73H10v-6h50V73z M60,52H10v-6h50V52z"/>
</svg>
