<?xml version="1.0" encoding="iso-8859-1"?>
<!-- Generator: Adobe Illustrator 19.0.0, SVG Export Plug-In . SVG Version: 6.00 Build 0)  -->
<svg version="1.1" id="Capa_1" xmlns="http://www.w3.org/2000/svg" xmlns:xlink="http://www.w3.org/1999/xlink" x="0px" y="0px"
	 viewBox="0 0 60 60" style="enable-background:new 0 0 60 60;" xml:space="preserve">
<g>
	<path d="M57.015,0h-4.029C51.339,0,50,1.339,50,2.985V7v6v37.266l4,7V59c0,0.553,0.447,1,1,1s1-0.447,1-1v-1.734l4-7V13V7V2.985
		C60,1.339,58.661,0,57.015,0z M52,9h6v2h-6V9z M55,54.984L52.723,51h4.554L55,54.984z M58,49h-6V13h6V49z M52,7V2.985
		C52,2.442,52.442,2,52.985,2h4.029C57.558,2,58,2.442,58,2.985V7H52z"/>
	<path d="M0,0v60h10h36V0H10H0z M2,58V2h6v56H2z M44,2v56H10V2H44z"/>
	<path d="M39,24V10H15v14H39z M17,12h20v10H17V12z"/>
	<rect x="20" y="14" width="14" height="2"/>
	<rect x="20" y="18" width="14" height="2"/>
</g>
<g>
</g>
<g>
</g>
<g>
</g>
<g>
</g>
<g>
</g>
<g>
</g>
<g>
</g>
<g>
</g>
<g>
</g>
<g>
</g>
<g>
</g>
<g>
</g>
<g>
</g>
<g>
</g>
<g>
</g>
</svg>
