<?xml version="1.0" encoding="iso-8859-1"?>
<!-- Generator: Adobe Illustrator 17.1.0, SVG Export Plug-In . SVG Version: 6.00 Build 0)  -->
<!DOCTYPE svg PUBLIC "-//W3C//DTD SVG 1.1//EN" "http://www.w3.org/Graphics/SVG/1.1/DTD/svg11.dtd">
<svg version="1.1" id="Capa_1" xmlns="http://www.w3.org/2000/svg" xmlns:xlink="http://www.w3.org/1999/xlink" x="0px" y="0px"
	 viewBox="0 0 465 465" style="enable-background:new 0 0 465 465;" xml:space="preserve">
<g>
	<path d="M405.437,0h-10c-4.143,0-7.5,3.358-7.5,7.5s3.357,7.5,7.5,7.5h2.5v435h-2.5c-4.143,0-7.5,3.358-7.5,7.5s3.357,7.5,7.5,7.5
		h10c4.143,0,7.5-3.358,7.5-7.5V7.5C412.937,3.358,409.579,0,405.437,0z"/>
	<path d="M315.437,140H109.563c-4.143,0-7.5,3.358-7.5,7.5s3.357,7.5,7.5,7.5h205.873c4.143,0,7.5-3.358,7.5-7.5
		S319.579,140,315.437,140z"/>
	<path d="M315.437,260H109.563c-4.143,0-7.5,3.358-7.5,7.5s3.357,7.5,7.5,7.5h205.873c4.143,0,7.5-3.358,7.5-7.5
		S319.579,260,315.437,260z"/>
	<path d="M315.437,300H232.5c-4.143,0-7.5,3.358-7.5,7.5s3.357,7.5,7.5,7.5h82.937c4.143,0,7.5-3.358,7.5-7.5
		S319.579,300,315.437,300z"/>
	<path d="M365.437,0H129.563c-0.251,0-0.501,0.013-0.749,0.038c-0.184,0.019-0.365,0.05-0.545,0.082
		c-0.06,0.011-0.122,0.016-0.182,0.028c-0.215,0.043-0.425,0.098-0.632,0.159c-0.025,0.008-0.052,0.012-0.077,0.02
		c-0.212,0.064-0.419,0.141-0.623,0.223c-0.022,0.009-0.044,0.015-0.066,0.024c-0.195,0.081-0.383,0.172-0.569,0.269
		c-0.031,0.016-0.064,0.029-0.094,0.045c-0.173,0.093-0.339,0.196-0.504,0.301c-0.042,0.027-0.086,0.049-0.127,0.077
		c-0.154,0.103-0.3,0.216-0.446,0.33c-0.048,0.038-0.098,0.07-0.145,0.109c-0.173,0.142-0.338,0.293-0.498,0.451
		c-0.015,0.015-0.031,0.027-0.046,0.042l-70,70c-0.018,0.018-0.033,0.039-0.051,0.057c-0.153,0.156-0.301,0.317-0.44,0.486
		c-0.044,0.054-0.082,0.112-0.125,0.167c-0.108,0.138-0.215,0.277-0.313,0.423c-0.033,0.049-0.06,0.101-0.092,0.151
		c-0.1,0.157-0.199,0.315-0.287,0.48c-0.02,0.037-0.035,0.075-0.054,0.112c-0.093,0.181-0.182,0.363-0.261,0.552
		c-0.011,0.026-0.019,0.054-0.03,0.081c-0.08,0.2-0.155,0.402-0.218,0.61c-0.008,0.026-0.013,0.053-0.021,0.08
		c-0.061,0.207-0.116,0.416-0.158,0.63c-0.012,0.059-0.017,0.119-0.027,0.178c-0.032,0.182-0.064,0.363-0.082,0.549
		c-0.025,0.248-0.038,0.498-0.038,0.749v380c0,4.142,3.357,7.5,7.5,7.5h305.873c4.143,0,7.5-3.358,7.5-7.5V7.5
		C372.937,3.358,369.579,0,365.437,0z M122.063,25.606V70H77.67L122.063,25.606z M357.937,450H67.063V85h62.5
		c4.143,0,7.5-3.358,7.5-7.5V15h220.873V450z"/>
	<path d="M159.563,85h155.873c4.143,0,7.5-3.358,7.5-7.5s-3.357-7.5-7.5-7.5H159.563c-4.143,0-7.5,3.358-7.5,7.5
		S155.421,85,159.563,85z"/>
	<path d="M315.437,180H232.5c-4.143,0-7.5,3.358-7.5,7.5s3.357,7.5,7.5,7.5h82.937c4.143,0,7.5-3.358,7.5-7.5
		S319.579,180,315.437,180z"/>
	<path d="M315.437,220H232.5c-4.143,0-7.5,3.358-7.5,7.5s3.357,7.5,7.5,7.5h82.937c4.143,0,7.5-3.358,7.5-7.5
		S319.579,220,315.437,220z"/>
	<path d="M192.5,315c4.143,0,7.5-3.358,7.5-7.5s-3.357-7.5-7.5-7.5h-82.937c-4.143,0-7.5,3.358-7.5,7.5v80
		c0,4.142,3.357,7.5,7.5,7.5H192.5c4.143,0,7.5-3.358,7.5-7.5v-50c0-4.142-3.357-7.5-7.5-7.5s-7.5,3.358-7.5,7.5V380h-67.937v-65
		H192.5z"/>
	<path d="M109.563,235H192.5c4.143,0,7.5-3.358,7.5-7.5s-3.357-7.5-7.5-7.5h-82.937c-4.143,0-7.5,3.358-7.5,7.5
		S105.421,235,109.563,235z"/>
	<path d="M265.437,380H232.5c-4.143,0-7.5,3.358-7.5,7.5s3.357,7.5,7.5,7.5h32.937c4.143,0,7.5-3.358,7.5-7.5
		S269.579,380,265.437,380z"/>
	<path d="M315.437,340H232.5c-4.143,0-7.5,3.358-7.5,7.5s3.357,7.5,7.5,7.5h82.937c4.143,0,7.5-3.358,7.5-7.5
		S319.579,340,315.437,340z"/>
	<path d="M109.563,195H192.5c4.143,0,7.5-3.358,7.5-7.5s-3.357-7.5-7.5-7.5h-82.937c-4.143,0-7.5,3.358-7.5,7.5
		S105.421,195,109.563,195z"/>
</g>
<g>
</g>
<g>
</g>
<g>
</g>
<g>
</g>
<g>
</g>
<g>
</g>
<g>
</g>
<g>
</g>
<g>
</g>
<g>
</g>
<g>
</g>
<g>
</g>
<g>
</g>
<g>
</g>
<g>
</g>
</svg>
