<?xml version="1.0" encoding="iso-8859-1"?>
<!-- Generator: Adobe Illustrator 19.0.0, SVG Export Plug-In . SVG Version: 6.00 Build 0)  -->
<svg version="1.1" id="Capa_1" xmlns="http://www.w3.org/2000/svg" xmlns:xlink="http://www.w3.org/1999/xlink" x="0px" y="0px"
	 viewBox="0 0 510.873 510.873" style="enable-background:new 0 0 510.873 510.873;" xml:space="preserve">
<g>
	<path d="M479.725,389.69c-10.718-15.699-25.664-26.598-43.22-31.516c-0.213-0.06-0.428-0.11-0.646-0.151l-74.286-13.882
		l-24.979-33.086c23.655-26.897,38.531-64.558,38.531-103.872V121.23l32.811-11.25v83.126c-9.29,3.138-16,11.93-16,22.266v28.513
		c0,4.142,3.358,7.5,7.5,7.5h32c4.142,0,7.5-3.358,7.5-7.5v-28.513c0-10.336-6.71-19.128-16-22.266v-88.269l18.339-6.288
		c8.299-2.845,13.661-10.352,13.661-19.125s-5.362-16.28-13.661-19.125L278.549,4.508c-17.529-6.01-36.834-6.01-54.362,0
		L61.461,60.299C53.162,63.145,47.8,70.652,47.8,79.424s5.362,16.28,13.661,19.125l74.223,25.448v83.121
		c0,39.294,14.915,76.973,38.627,103.894l-25.011,33.129l-74.286,13.882c-0.217,0.041-0.433,0.091-0.646,0.151
		c-17.557,4.918-32.502,15.817-43.22,31.516c-9.809,14.368-15.211,31.708-15.211,48.825v43.841c0,15.724,14.131,28.516,31.5,28.516
		h175.988c0.007,0,0.013,0.001,0.02,0.001c0.008,0,0.015-0.001,0.022-0.001h63.94c0.008,0,0.015,0.001,0.022,0.001
		c0.007,0,0.013-0.001,0.02-0.001h175.988c17.369,0,31.5-12.792,31.5-28.516v-43.841
		C494.936,421.397,489.534,404.058,479.725,389.69z M423.936,236.384h-17v-21.013c0-4.687,3.813-8.5,8.5-8.5s8.5,3.813,8.5,8.5
		V236.384z M453.169,383.032l-24.291,24.291c-13.504,13.504-20.942,31.459-20.942,50.558v37.99H293.585l-2.784-13.921
		c-0.002-0.009-0.004-0.018-0.005-0.027l-11.454-57.272c1.506-1.387,2.827-2.969,3.931-4.704l7.476,9.28
		c0.168,0.209,0.347,0.409,0.537,0.598c2.928,2.928,6.852,4.541,10.945,4.541c0.493,0,0.989-0.023,1.485-0.071
		c4.619-0.44,8.76-2.896,11.362-6.737l46.212-68.212l71.479,13.357C440.496,374.913,447.303,378.495,453.169,383.032z
		 M266.543,495.872l-28.299-28.298l3.131-15.656l35.151,35.152l1.76,8.802H266.543z M238.861,310.872h33.152
		c-0.136,13.713-2.171,44.683-16.576,67.751C241.031,355.553,238.997,324.581,238.861,310.872z M249.7,396.203
		c1.425,1.692,3.524,2.669,5.737,2.669s4.312-0.977,5.737-2.669c0.508-0.604,1.004-1.216,1.493-1.832l9.396,11.663
		c-0.078,0.435-0.126,0.88-0.126,1.338c0,4.687-3.813,8.5-8.5,8.5h-16c-4.687,0-8.5-3.813-8.5-8.5c0-0.457-0.047-0.903-0.126-1.338
		l9.396-11.663C248.695,394.987,249.192,395.599,249.7,396.203z M247.436,430.872h16c0.618,0,1.229-0.031,1.836-0.079l5.952,29.759
		l-26.313-26.312l0.689-3.447C246.207,430.84,246.818,430.872,247.436,430.872z M234.709,485.251l10.62,10.62h-12.744
		L234.709,485.251z M302.659,419.147c-0.04,0.059-0.132,0.195-0.366,0.217c-0.114,0.011-0.199-0.011-0.263-0.042l-30.742-38.16
		c5.979-11.139,9.727-23.222,12.055-34.49c15.598-4.762,30.032-13.374,42.619-24.806l22.453,29.741L302.659,419.147z
		 M303.436,167.872c-14.809,0-27.733,8.196-34.495,20.286c-3.824-2.696-8.481-4.286-13.505-4.286s-9.681,1.59-13.505,4.286
		c-6.761-12.09-19.686-20.286-34.495-20.286c-16.281,0-30.29,9.903-36.328,24h-20.425v-14.598c0.159-0.609,0.253-1.244,0.253-1.902
		c0-2.113,4.916-9.002,27.364-15.416c20.503-5.858,47.896-9.084,77.136-9.084s56.633,3.226,77.136,9.084
		c22.448,6.414,27.364,13.303,27.364,15.416c0,0.569,0.069,1.121,0.189,1.654v14.846h-20.361
		C333.726,177.775,319.717,167.872,303.436,167.872z M327.936,207.372c0,13.509-10.991,24.5-24.5,24.5s-24.5-10.991-24.5-24.5
		s10.991-24.5,24.5-24.5S327.936,193.862,327.936,207.372z M207.436,182.872c13.509,0,24.5,10.991,24.5,24.5s-10.991,24.5-24.5,24.5
		s-24.5-10.991-24.5-24.5S193.927,182.872,207.436,182.872z M150.683,145.274c0.159-0.609,0.253-1.244,0.253-1.902
		c0-2.113,4.916-9.002,27.364-15.416c20.503-5.858,47.896-9.084,77.136-9.084s56.633,3.226,77.136,9.084
		c22.448,6.414,27.364,13.303,27.364,15.416c0,0.569,0.069,1.121,0.189,1.654v9.935c-6.004-3.532-13.818-6.68-23.433-9.427
		c-21.805-6.23-50.663-9.661-81.256-9.661s-59.451,3.431-81.256,9.661c-9.649,2.757-17.484,5.918-23.497,9.466V145.274z
		 M360.125,114.28c-0.246,1.079-0.264,2.221,0,3.354v5.327c-6.004-3.532-13.818-6.68-23.433-9.427
		c-21.805-6.23-50.663-9.661-81.256-9.661s-59.451,3.431-81.256,9.661c-9.649,2.757-17.484,5.918-23.497,9.466v-2.246
		c0.383-1.369,0.365-2.764,0-4.051V89.274c0.159-0.609,0.253-1.244,0.253-1.902c0-2.113,4.916-9.002,27.364-15.416
		c20.503-5.858,47.896-9.084,77.136-9.084s56.633,3.226,77.136,9.084c22.448,6.414,27.364,13.303,27.364,15.416
		c0,0.569,0.069,1.121,0.189,1.654V114.28z M66.325,84.36c-3.182-1.091-3.525-3.815-3.525-4.936s0.344-3.845,3.526-4.936
		l162.727-55.792c14.39-4.934,30.241-4.935,44.632,0l162.727,55.792c3.182,1.091,3.525,3.815,3.525,4.936s-0.344,3.845-3.526,4.936
		l-61.285,21.012v-18c0-0.761-0.115-1.496-0.326-2.188c-1.424-11.532-14.223-20.827-38.106-27.651
		c-21.805-6.23-50.663-9.661-81.256-9.661s-59.451,3.431-81.256,9.661c-23.679,6.765-36.461,15.96-38.066,27.355
		c-0.274,0.779-0.43,1.612-0.43,2.484v20.768L66.325,84.36z M150.683,206.872h17.266c-0.002,0.167-0.013,0.332-0.013,0.5
		c0,21.78,17.72,39.5,39.5,39.5s39.5-17.72,39.5-39.5c0-4.687,3.813-8.5,8.5-8.5s8.5,3.813,8.5,8.5c0,21.78,17.72,39.5,39.5,39.5
		s39.5-17.72,39.5-39.5c0-0.168-0.011-0.333-0.013-0.5h17.202v0.311c0,28.103-8.534,56.451-24.029,79.823
		c-13.371,20.168-30.933,35.111-50.14,42.85c1.606-14.938,0.982-25.931,0.918-26.955c-0.25-3.951-3.526-7.028-7.485-7.028h-47.905
		c-3.959,0-7.236,3.077-7.485,7.028c-0.065,1.023-0.687,11.986,0.911,26.891c-19.209-7.774-36.779-22.738-50.165-42.908
		c-15.517-23.382-24.062-51.709-24.062-79.765V206.872z M184.949,321.816c12.577,11.413,26.995,20.022,42.571,24.805
		c2.327,11.283,6.078,23.385,12.066,34.541l-30.743,38.161c-0.063,0.031-0.149,0.053-0.263,0.042
		c-0.234-0.022-0.327-0.159-0.367-0.217l-45.756-67.539L184.949,321.816z M78.104,372.705l71.479-13.357l46.212,68.212
		c2.603,3.841,6.744,6.297,11.363,6.737c0.497,0.047,0.992,0.071,1.485,0.071c4.093,0,8.018-1.613,10.945-4.541
		c0.19-0.189,0.369-0.389,0.537-0.598l7.476-9.28c1.104,1.734,2.425,3.317,3.931,4.704l-14.244,71.219H102.936v-37.99
		c0-19.099-7.438-37.054-20.942-50.558l-24.291-24.291C63.57,378.495,70.377,374.913,78.104,372.705z M30.936,482.356v-43.841
		c0-15.106,5.458-31.838,16.073-44.963l24.378,24.378c10.671,10.671,16.548,24.86,16.548,39.952v37.99h-40.5
		C38.338,495.872,30.936,489.808,30.936,482.356z M479.936,482.356c0,7.452-7.402,13.516-16.5,13.516h-40.5v-37.99
		c0-15.092,5.877-29.28,16.548-39.952l24.378-24.378c10.615,13.125,16.073,29.857,16.073,44.963V482.356z"/>
	<path d="M221.353,281.612c4.584,0,9.271-1.595,13.201-2.933c7.667-2.61,12.605-3.994,16.533-1.197
		c0.047,0.034,0.098,0.06,0.146,0.093c0.135,0.091,0.271,0.18,0.411,0.262c0.087,0.051,0.176,0.098,0.264,0.145
		c0.123,0.065,0.246,0.129,0.372,0.188c0.11,0.051,0.222,0.098,0.334,0.144c0.107,0.044,0.215,0.086,0.324,0.124
		c0.129,0.046,0.258,0.086,0.389,0.125c0.098,0.029,0.196,0.056,0.295,0.081c0.137,0.034,0.274,0.064,0.412,0.09
		c0.1,0.019,0.201,0.037,0.302,0.052c0.133,0.02,0.266,0.035,0.399,0.048c0.112,0.011,0.223,0.019,0.336,0.024
		c0.121,0.006,0.241,0.008,0.361,0.008c0.128,0,0.255-0.003,0.383-0.009c0.105-0.005,0.209-0.013,0.314-0.023
		c0.141-0.013,0.281-0.029,0.421-0.05c0.094-0.014,0.187-0.03,0.281-0.048c0.144-0.027,0.288-0.058,0.431-0.094
		c0.093-0.023,0.185-0.049,0.277-0.076c0.136-0.04,0.272-0.082,0.406-0.13c0.103-0.036,0.205-0.077,0.306-0.118
		c0.117-0.048,0.234-0.096,0.35-0.151c0.121-0.056,0.239-0.117,0.356-0.18c0.093-0.05,0.186-0.099,0.278-0.153
		c0.135-0.08,0.267-0.166,0.398-0.254c0.051-0.034,0.104-0.063,0.154-0.098c3.928-2.794,8.866-1.412,16.533,1.197
		c3.931,1.338,8.616,2.934,13.201,2.933c4.223,0,8.359-1.354,11.737-5.51c2.613-3.214,2.098-7.907-1.117-10.52
		c-3.186-2.589-7.883-2.103-10.51,1.039c-1.447,0.249-5.83-1.24-8.477-2.142c-7.135-2.429-16.544-5.625-25.716-1.672
		c-9.172-3.953-18.581-0.756-25.716,1.672c-2.649,0.903-7.028,2.395-8.481,2.141c-2.616-3.196-7.326-3.674-10.533-1.068
		c-3.214,2.612-3.702,7.336-1.089,10.55C212.994,280.258,217.13,281.612,221.353,281.612z"/>
	<path d="M207.436,222.872c8.547,0,15.5-6.953,15.5-15.5c0-4.142-3.358-7.5-7.5-7.5s-7.5,3.358-7.5,7.5c0,0.276-0.224,0.5-0.5,0.5
		c-4.142,0-7.5,3.358-7.5,7.5S203.294,222.872,207.436,222.872z"/>
	<path d="M295.936,215.372c0,4.142,3.358,7.5,7.5,7.5c8.547,0,15.5-6.953,15.5-15.5c0-4.142-3.358-7.5-7.5-7.5s-7.5,3.358-7.5,7.5
		c0,0.276-0.224,0.5-0.5,0.5C299.294,207.872,295.936,211.23,295.936,215.372z"/>
</g>
<g>
</g>
<g>
</g>
<g>
</g>
<g>
</g>
<g>
</g>
<g>
</g>
<g>
</g>
<g>
</g>
<g>
</g>
<g>
</g>
<g>
</g>
<g>
</g>
<g>
</g>
<g>
</g>
<g>
</g>
</svg>
