<?xml version="1.0" encoding="utf-8"?>
<!-- Generator: Adobe Illustrator 19.2.1, SVG Export Plug-In . SVG Version: 6.00 Build 0)  -->
<svg version="1.1" id="Layer_1" xmlns="http://www.w3.org/2000/svg" xmlns:xlink="http://www.w3.org/1999/xlink" x="0px" y="0px"
	 viewBox="0 0 20 20" style="enable-background:new 0 0 20 20;" xml:space="preserve">
	<style type="text/css">
		.remove0{fill:#aaaaaa;}
		.remove1{fill:#FFFFFF;}
	</style>
	<g>
		<g>
			<path class="remove0" d="M2.9,2.9C-1,6.8-1,13.2,2.9,17.1c3.9,3.9,10.2,3.9,14.1,0c3.9-3.9,3.9-10.2,0-14.1C13.2-1,6.8-1,2.9,2.9z
				 M11.7,10l3.4,3.4l-1.7,1.7L10,11.7l-3.4,3.4l-1.7-1.7L8.3,10L4.9,6.6l1.7-1.7L10,8.3l3.4-3.4l1.7,1.7L11.7,10z"/>
		</g>
		<g>
			<path class="remove1" d="M11.7,10l3.4,3.4l-1.7,1.7L10,11.7l-3.4,3.4l-1.7-1.7L8.3,10L4.9,6.6l1.7-1.7L10,8.3l3.4-3.4l1.7,1.7L11.7,10
				z"/>
		</g>
	</g>
</svg>
