<?xml version="1.0" encoding="utf-8"?>
<!-- Generator: Adobe Illustrator 20.1.0, SVG Export Plug-In . SVG Version: 6.00 Build 0)  -->
<svg version="1.1" id="Layer_1" xmlns="http://www.w3.org/2000/svg" xmlns:xlink="http://www.w3.org/1999/xlink" x="0px" y="0px"
	 viewBox="0 0 424.7 159.6" style="enable-background:new 0 0 424.7 159.6;" xml:space="preserve">
<style type="text/css">
	.notFound0{fill:#FFFFFF;}
	.notFound1{fill:#E93F33;}
</style>
<g>
	<g>
		<path class="notFound0" d="M101.3,126v33.6H65.9L65.6,126H0v-24.2L44.2,0l30.9,11.5L37.5,98.8h28.6L70,61.9h31.3v36.8h17.5V126H101.3z"
			/>
	</g>
	<g>
		<path class="notFound0" d="M407.2,126v33.6h-35.5l-0.2-33.6h-65.6v-24.2L350.1,0l30.9,11.5l-37.5,87.3H372l3.9-36.8h31.3v36.8h17.5V126
			H407.2z"/>
	</g>
	<g>
		<g>
			<path class="notFound0" d="M156,24.5c-30.9,30.9-30.9,81,0,111.9c30.9,30.9,81,30.9,111.9,0c30.9-30.9,30.9-81,0-111.9
				C237-6.4,186.9-6.4,156,24.5z M246,114.5c-18.8,18.8-49.3,18.8-68,0s-18.8-49.3,0-68s49.3-18.8,68,0S264.8,95.7,246,114.5z"/>
		</g>
		<g>
			<g>
				<path class="notFound1" d="M246,46.4c6,6,10,13.1,12.2,20.6l23.7-23.7c-3.6-6.8-8.3-13.2-14-18.9c-5.7-5.7-12.1-10.4-18.9-14
					l-23.7,23.7C232.9,36.4,240,40.5,246,46.4z"/>
			</g>
			<g>
				<path class="notFound1" d="M177.9,114.5c-6-6-10-13.1-12.2-20.6L142,117.5c3.6,6.8,8.3,13.2,14,18.9c5.7,5.7,12.1,10.4,18.9,14
					l23.7-23.7C191,124.5,183.9,120.4,177.9,114.5z"/>
			</g>
			<g>
				<path class="notFound1" d="M281.9,117.5l-23.7-23.7c-2.2,7.6-6.2,14.7-12.2,20.6c-6,6-13.1,10-20.6,12.2l23.7,23.7
					c6.8-3.6,13.2-8.3,18.9-14C273.6,130.7,278.3,124.3,281.9,117.5z"/>
			</g>
			<g>
				<path class="notFound1" d="M142,43.4l23.7,23.7c2.2-7.6,6.2-14.7,12.2-20.6c6-6,13.1-10,20.6-12.2l-23.7-23.7
					c-6.8,3.6-13.2,8.3-18.9,14C150.3,30.2,145.6,36.6,142,43.4z"/>
			</g>
		</g>
	</g>
</g>
</svg>
