<?xml version="1.0" encoding="utf-8"?>
<!-- Generator: Adobe Illustrator 20.1.0, SVG Export Plug-In . SVG Version: 6.00 Build 0)  -->
<svg version="1.1" id="Layer_1" xmlns="http://www.w3.org/2000/svg" xmlns:xlink="http://www.w3.org/1999/xlink" x="0px" y="0px"
	 viewBox="0 0 127.3 100" style="enable-background:new 0 0 127.3 100;" xml:space="preserve">
	<path d="M24.9,4.9C32.6,1.6,41,0,50,0c9,0,17.4,1.6,25.1,4.9c7.7,3.2,13.8,7.7,18.2,13.2c4.4,5.6,6.7,11.7,6.7,18.3
		c0,6.6-2.2,12.7-6.7,18.3c-4.5,5.6-10.5,10-18.2,13.2C67.4,71.1,59,72.7,50,72.7c-4.1,0-8.2-0.4-12.5-1.1
		c-5.9,4.2-12.5,7.2-19.7,9.1c-1.7,0.4-3.7,0.8-6.1,1.1h-0.2c-0.5,0-1-0.2-1.5-0.6c-0.5-0.4-0.7-0.9-0.8-1.5c0-0.1-0.1-0.3-0.1-0.5
		s0-0.3,0-0.5c0-0.1,0.1-0.3,0.1-0.4c0.1-0.1,0.1-0.3,0.2-0.4c0-0.1,0.1-0.2,0.2-0.4c0.1-0.2,0.2-0.3,0.3-0.4
		c0.1-0.1,0.2-0.2,0.3-0.4c0.1-0.2,0.2-0.3,0.3-0.3c0.2-0.3,0.8-0.9,1.6-1.8c0.9-0.9,1.5-1.6,1.8-2.1c0.4-0.5,0.9-1.2,1.6-2.1
		c0.7-0.9,1.3-1.8,1.8-2.7c0.5-0.9,1-2,1.5-3.1C13,61.4,8.4,57.2,5,52.3c-3.4-5-5-10.3-5-15.9c0-6.6,2.2-12.7,6.7-18.3
		C11.1,12.5,17.2,8.1,24.9,4.9z M70.3,12.8C64,10.3,57.2,9.1,50,9.1s-14,1.2-20.3,3.7c-6.3,2.5-11.3,5.8-15,10
		c-3.7,4.2-5.6,8.7-5.6,13.6c0,3.9,1.3,7.6,3.8,11.2c2.5,3.6,6,6.7,10.6,9.4l6.9,4l-2.5,6c1.6-0.9,3.1-1.9,4.4-2.8l3.1-2.2l3.8,0.7
		c3.7,0.7,7.3,1,10.9,1c7.2,0,14-1.2,20.3-3.7c6.3-2.5,11.3-5.8,15-10c3.7-4.2,5.6-8.7,5.6-13.6S89,27,85.3,22.8
		C81.6,18.6,76.6,15.2,70.3,12.8z M108.4,83c0.5,1.1,1,2.2,1.5,3.1c0.5,0.9,1.1,1.9,1.8,2.7c0.7,0.9,1.2,1.6,1.6,2.1
		c0.4,0.5,1,1.2,1.8,2.1c0.9,0.9,1.4,1.5,1.6,1.8c0,0,0.1,0.2,0.3,0.3c0.1,0.2,0.2,0.3,0.3,0.4c0.1,0.1,0.2,0.2,0.3,0.4
		c0.1,0.2,0.2,0.3,0.2,0.4c0,0.1,0.1,0.2,0.2,0.4c0.1,0.1,0.1,0.3,0.1,0.4c0,0.1,0,0.3,0,0.5c0,0.2,0,0.3-0.1,0.5
		c-0.1,0.7-0.5,1.2-0.9,1.6c-0.5,0.4-1,0.5-1.6,0.5c-2.4-0.3-4.4-0.7-6.1-1.1c-7.3-1.9-13.9-4.9-19.7-9.1c-4.3,0.8-8.4,1.1-12.5,1.1
		c-12.8,0-24-3.1-33.5-9.4c2.7,0.2,4.8,0.3,6.2,0.3c7.6,0,14.9-1.1,21.9-3.2c7-2.1,13.3-5.2,18.7-9.2c5.9-4.4,10.5-9.4,13.6-15.1
		c3.2-5.7,4.8-11.7,4.8-18c0-3.6-0.5-7.2-1.6-10.8c6.1,3.4,10.9,7.6,14.5,12.6c3.6,5.1,5.3,10.5,5.3,16.3c0,5.7-1.7,11-5,15.9
		C118.9,75.4,114.2,79.6,108.4,83z"/>
</svg>
