<?xml version="1.0" encoding="utf-8"?>
<!-- Generator: Adobe Illustrator 20.1.0, SVG Export Plug-In . SVG Version: 6.00 Build 0)  -->
<svg version="1.1" id="Layer_1" xmlns="http://www.w3.org/2000/svg" xmlns:xlink="http://www.w3.org/1999/xlink" x="0px" y="0px"
	 viewBox="0 0 178.6 100" style="enable-background:new 0 0 178.6 100;" xml:space="preserve">
	<g>
		<path d="M89.3,0C30.7,0,0,43.2,0,50c0,6.8,30.7,50,89.3,50c58.6,0,89.3-43.2,89.3-50C178.6,43.2,147.9,0,89.3,0z
			 M89.3,88.5c-21.9,0-39.7-17.2-39.7-38.5s17.8-38.5,39.7-38.5S129,28.8,129,50S111.2,88.5,89.3,88.5z M89.3,50
			c-3.6-4,5.9-19.2,0-19.2c-11,0-19.8,8.6-19.8,19.2c0,10.6,8.9,19.2,19.8,19.2c11,0,19.8-8.6,19.8-19.2
			C109.1,45.1,92.4,53.4,89.3,50z"/>
	</g>
</svg>
