<?xml version="1.0" encoding="utf-8"?>
<!-- Generator: Adobe Illustrator 20.1.0, SVG Export Plug-In . SVG Version: 6.00 Build 0)  -->
<svg version="1.1" id="Layer_1" xmlns="http://www.w3.org/2000/svg" xmlns:xlink="http://www.w3.org/1999/xlink" x="0px" y="0px"
	 viewBox="0 0 100 100" style="enable-background:new 0 0 100 100;" xml:space="preserve">
	<g>
		<path d="M36.6,79.3l-5.1,5c-4.4,4.3-11.5,4.4-15.9,0c-2.1-2.1-3.3-4.9-3.3-7.8c0-3,1.2-5.7,3.3-7.8l18.6-18.5
			c3.9-3.8,11.1-9.5,16.4-4.2c2.4,2.4,6.4,2.4,8.8,0c2.4-2.4,2.4-6.4,0-8.8c-9-8.9-22.3-7.3-33.9,4.2L6.9,59.9
			C2.5,64.4,0,70.3,0,76.5c0,6.3,2.5,12.2,6.9,16.6c4.6,4.6,10.6,6.8,16.7,6.8c6,0,12.1-2.3,16.7-6.8l5.1-5c2.4-2.4,2.4-6.3,0-8.8
			C43,76.9,39.1,76.9,36.6,79.3z M93.1,7.6C83.4-2,69.9-2.6,60.9,6.3l-6.3,6.3c-2.4,2.4-2.4,6.3,0,8.8c2.4,2.4,6.3,2.4,8.8,0l6.3-6.3
			c4.6-4.6,10.7-2.7,14.7,1.2c2.1,2.1,3.3,4.9,3.3,7.8c0,3-1.2,5.7-3.3,7.8L64.5,51.7c-9.1,9-13.3,4.8-15.2,3c-2.4-2.4-6.4-2.4-8.8,0
			c-2.4,2.4-2.4,6.4,0,8.8c4.2,4.1,8.9,6.2,13.9,6.2c6.1,0,12.6-3.1,18.7-9.2l19.9-19.7c4.5-4.4,6.9-10.3,6.9-16.6
			C100,17.9,97.5,12,93.1,7.6z"/>
	</g>
</svg>
