<?xml version="1.0" encoding="utf-8"?>
<!-- Generator: Adobe Illustrator 20.1.0, SVG Export Plug-In . SVG Version: 6.00 Build 0)  -->
<svg version="1.1" id="Layer_1" xmlns="http://www.w3.org/2000/svg" xmlns:xlink="http://www.w3.org/1999/xlink" x="0px" y="0px"
	 viewBox="0 0 134.8 100" style="enable-background:new 0 0 134.8 100;" xml:space="preserve">
<style type="text/css">
	.logTergetRevisedUp0{fill:#FFFFFF;}
	.logTergetRevisedUp1{fill:#0bbbef;}
</style>
<g>
	<g>
		<path class="logTergetRevisedUp0" d="M84,78.1l-4.2,0C73.3,84.9,64,89.4,55,90.4V63h-9v27.4C27,88.5,11.3,74,9.4,54H38v-8H9.4
			C11.3,27,27,11.4,46,9.5V38h9V9.5c16,1.7,30.3,13.8,34.6,29.8l6.8-8.1C89,12.9,70.9,0,50,0C22.4,0,0,22.4,0,49.9
			c0,27.6,22.5,49.9,50.1,49.9c13,0,24.9-5,33.9-13.1V78.1z"/>
		<polygon class="logTergetRevisedUp0" points="63,46 63,54 76.3,54 83.4,46 		"/>
	</g>
	<polygon class="logTergetRevisedUp1" points="75.8,68.6 92.9,68.6 92.9,100 117.7,100 117.7,68.6 134.8,68.6 105.3,34.7 	"/>
</g>
</svg>
