<?xml version="1.0" encoding="utf-8"?>
<!-- Generator: Adobe Illustrator 20.1.0, SVG Export Plug-In . SVG Version: 6.00 Build 0)  -->
<svg version="1.1" id="Layer_1" xmlns="http://www.w3.org/2000/svg" xmlns:xlink="http://www.w3.org/1999/xlink" x="0px" y="0px"
	 viewBox="0 0 126.2 100" style="enable-background:new 0 0 126.2 100;" xml:space="preserve">
<style type="text/css">
	.logRevenueRevised0{fill:#FFFFFF;}
	.logRevenueRevised1{fill:#0BBBEF;}
</style>
<g>
	<g id="e44W9W.tif_1_">
		<g>
			<g>
				<path class="logRevenueRevised0" d="M0,42.3c0-7.2,0-14.4,0-21.6c0-0.6,0.1-0.9,0.7-1.2C14.5,13.1,28.3,6.7,42,0.3c0.7-0.3,1.3-0.3,2.1,0
					c13.3,6.3,26.7,12.7,40.1,19c0.7,0.3,0.9,0.7,0.9,1.5c0,14.3,0,28.6,0,42.9c0,0.8-0.2,1.1-0.9,1.5C71,71.9,57.8,78.7,44.7,85.5
					c-0.6,0.3-1,0.3-1.6,0.1C29,78.7,14.9,72,0.8,65.2C0.2,64.9,0,64.5,0,63.8C0.1,56.7,0.1,49.5,0,42.3L0,42.3z M41.4,80.8
					c0-0.3,0.1-0.6,0.1-0.8c0-13.4,0-26.8,0-40.2c0-0.6-0.2-0.9-0.7-1.1C28.6,33.4,16.5,28,4.4,22.7c-0.2-0.1-0.5-0.2-0.8-0.3
					c0,0.3-0.1,0.5-0.1,0.7c0,12.9,0,25.9,0,38.8c0,0.6,0.2,0.9,0.8,1.2c12.1,5.8,24.2,11.6,36.2,17.4
					C40.8,80.6,41.1,80.7,41.4,80.8z M57.9,32.8c-0.3,0.1-0.3,0.1-0.4,0.1c-4,1.9-8,3.9-12,5.8c-0.6,0.3-0.5,0.7-0.5,1.1
					c0,13.4,0,26.8,0,40.2c0,0.3,0,0.6,0.1,0.9c0.3-0.1,0.5-0.2,0.7-0.3c11.7-5.9,23.4-11.9,35.2-17.8c0.5-0.3,0.7-0.6,0.7-1.2
					c0-13,0-25.9,0-38.9c0-0.3,0-0.6,0-1c-0.5,0.2-0.8,0.3-1.1,0.5c-3.3,1.5-6.6,3-9.9,4.5c-0.6,0.3-0.9,0.6-0.9,1.3
					c0,6,0,11.9,0,17.9c0,0.6-0.1,0.9-0.7,1.2c-3.4,1.7-6.9,3.5-10.3,5.2c-0.2,0.1-0.5,0.2-0.8,0.3C57.9,46.1,57.9,39.5,57.9,32.8z
					 M55.5,29.8c-0.3-0.2-0.4-0.2-0.5-0.3c-11.3-5-22.5-10-33.8-15c-0.3-0.1-0.9-0.1-1.2,0.1c-3.4,1.5-6.9,3-10.3,4.5
					c-0.9,0.4-1.9,0.8-2.9,1.3c0.3,0.2,0.4,0.3,0.6,0.3c11.7,5,23.4,10.1,35,15.1c0.3,0.1,0.9,0.1,1.2-0.1c2.7-1.3,5.3-2.7,8-4
					C52.9,31.1,54.1,30.5,55.5,29.8z M77.7,20.1c-0.3-0.2-0.5-0.3-0.7-0.4C65.7,14.5,54.5,9.3,43.2,4.2C42.9,4,42.3,4,42,4.2
					c-3.1,1.4-6.1,2.8-9.1,4.2c-0.2,0.1-0.4,0.3-0.7,0.4C32.3,8.9,32.3,9,32.4,9c11.7,5.3,23.3,10.5,35,15.8
					c0.3,0.1,0.8,0.1,1.1-0.1c2.8-1.4,5.6-2.8,8.4-4.2C77.1,20.4,77.3,20.3,77.7,20.1z"/>
			</g>
		</g>
	</g>
	<path class="logRevenueRevised1" d="M88.6,88.2C81.9,81,82,69.7,89,62.6c2.9-2.9,6.4-4.6,10.1-5.2l-0.2-6.2c-5.2,0.6-10.2,3-14.2,7
		c-9.3,9.4-9.5,24.6-0.4,34.2l-5.2,5.2l16.4,0.9l0-17.3L88.6,88.2z M108.3,52.7l0,17.3l6.8-6.9c6.7,7.2,6.6,18.5-0.4,25.6
		c-2.9,2.9-6.4,4.6-10.1,5.2l0.2,6.2c5.2-0.6,10.2-3,14.2-7c9.3-9.4,9.5-24.6,0.4-34.2l5.2-5.2L108.3,52.7z"/>
</g>
</svg>
