<?xml version="1.0" encoding="utf-8"?>
<!-- Generator: Adobe Illustrator 20.1.0, SVG Export Plug-In . SVG Version: 6.00 Build 0)  -->
<svg version="1.1" id="Layer_1" xmlns="http://www.w3.org/2000/svg" xmlns:xlink="http://www.w3.org/1999/xlink" x="0px" y="0px"
	 viewBox="0 0 100 100" style="enable-background:new 0 0 100 100;" xml:space="preserve">
<style type="text/css">
	.logOpportunityWon0{fill:#FFFFFF;}
	.logOpportunityWon1{fill:#41E583;}
	.logOpportunityWon2{fill:#cccccc;}
</style>
<g>
	<g id="JwE9uz.tif_10_">
		<g>
			<path class="logOpportunityWon0" d="M69.3,49.2c9.8-8.3,19.6-16.6,29.5-25C90.6,16.1,82.4,8.1,74.2,0C66,9.6,57.5,19.3,49.2,29
				C55.9,35.8,62.6,42.5,69.3,49.2z"/>
			<path class="logOpportunityWon2" d="M0,94.7c0.4-0.9,0.8-1.9,1.1-2.8c4.4-13.3,8.8-26.7,12.2-40.3c0.4-1.8,0.9-3.6,1.2-5.4
				c0.1-0.7,0.4-0.9,1.1-0.9c4.8,0,9.7-0.3,14.5-1.1c6.5-1.1,12.1-3.9,16.8-8.5c0.1-0.1,0.2-0.2,0.3-0.2
				c5.3,5.3,10.6,10.6,15.9,15.9c-1.2,1.6-2.6,3.2-3.8,4.9c-3,4.4-4.6,9.3-5.2,14.5c-0.4,4.1-0.6,8.2-0.8,12.3c0,0.6-0.2,0.8-0.8,1
				c-16.3,3.6-32.2,9-48.1,14.2c-0.2,0.1-0.4,0.2-0.6,0.3c-0.1,0-0.1,0-0.2,0c0.3-0.3,0.5-0.7,0.8-1C12.3,89.7,20.2,81.9,28,74
				c0.6-0.6,1.2-1,2.1-0.7c0.5,0.1,1.1,0,1.6-0.1c2.8-0.6,4.6-3.4,4-6.2c-0.6-2.9-3.3-4.7-6.1-4.2c-2.9,0.6-4.8,3.2-4.3,6
				c0.1,0.6-0.1,1-0.5,1.4c-8,8-16,16-24,23.9c-0.2,0.2-0.5,0.4-0.8,0.7C0,94.8,0,94.7,0,94.7z"/>
			<path class="logOpportunityWon1" d="M69.3,49.2C62.6,42.5,55.9,35.8,49.2,29C57.5,19.3,66,9.6,74.2,0c8.2,8.1,16.4,16.1,24.7,24.2
				C88.9,32.6,79.1,40.9,69.3,49.2z"/>
		</g>
	</g>
	<g>
		<path class="logOpportunityWon1" d="M75.8,100c-1.4,0-2.7-0.6-3.5-1.7L61.9,85.2c-1.5-1.9-1.2-4.8,0.7-6.3c1.9-1.5,4.8-1.2,6.3,0.7l6.5,8.2
			l16.5-26.3c1.3-2.1,4.1-2.7,6.2-1.4c2.1,1.3,2.7,4.1,1.4,6.2L79.6,97.9c-0.8,1.2-2.1,2-3.5,2.1C76,100,75.9,100,75.8,100z"/>
	</g>
</g>
</svg>
