<?xml version="1.0" encoding="utf-8"?>
<!-- Generator: Adobe Illustrator 20.1.0, SVG Export Plug-In . SVG Version: 6.00 Build 0)  -->
<svg version="1.1" id="Layer_1" xmlns="http://www.w3.org/2000/svg" xmlns:xlink="http://www.w3.org/1999/xlink" x="0px" y="0px"
	 viewBox="0 0 109.4 100" style="enable-background:new 0 0 109.4 100;" xml:space="preserve">
<style type="text/css">
	.logOpportunityRevised0{fill:#FFFFFF;}
	.logOpportunityRevised1{fill:#0BBBEF;}
	.logOpportunityRevised2{fill:#cccccc;}
</style>
<g>
	<path class="logOpportunityRevised2" d="M0,96.1c0.4-1,0.8-1.9,1.1-2.9C5.6,79.7,10,66.1,13.5,52.3c0.5-1.8,0.9-3.6,1.2-5.4c0.1-0.7,0.4-0.9,1.1-0.9
		c4.9,0,9.8-0.3,14.7-1.1c6.6-1.2,12.3-3.9,17.1-8.6c0.1-0.1,0.2-0.2,0.3-0.2c5.4,5.4,10.8,10.8,16.1,16.1c-1.3,1.6-2.7,3.2-3.9,4.9
		c-3.1,4.4-4.7,9.4-5.2,14.7c-0.4,4.2-0.6,8.4-0.8,12.5c0,0.6-0.2,0.8-0.8,1c-16.6,3.7-32.7,9.1-48.8,14.4c-0.2,0.1-0.4,0.2-0.6,0.3
		c-0.1,0-0.1,0-0.2,0c0.3-0.3,0.5-0.7,0.8-1c8-8,15.9-15.9,23.9-23.9c0.6-0.6,1.2-1,2.1-0.7c0.5,0.1,1.1,0,1.6-0.1
		c2.8-0.6,4.7-3.5,4.1-6.3c-0.6-2.9-3.4-4.8-6.2-4.2c-2.9,0.6-4.9,3.3-4.3,6.1c0.1,0.7-0.1,1-0.5,1.4C17,79.4,8.9,87.5,0.8,95.6
		C0.6,95.9,0.3,96,0,96.3C0,96.2,0,96.1,0,96.1z"/>
	<path class="logOpportunityRevised0" d="M75.3,0c8.3,8.2,16.7,16.3,25,24.6c-10.1,8.6-20.1,17-30,25.4c-6.8-6.8-13.6-13.6-20.5-20.5
		C58.4,19.6,66.9,9.7,75.3,0"/>
	<path class="logOpportunityRevised1" d="M74.3,89c-6.3-6.7-6.2-17.3,0.4-23.9c2.7-2.7,6-4.3,9.5-4.8l-0.2-5.8c-4.9,0.6-9.6,2.8-13.3,6.5
		c-8.7,8.8-8.8,23-0.3,32l-4.8,4.9l15.3,0.8l0-16.2L74.3,89z M92.7,55.8l0,16.2l6.4-6.4c6.3,6.7,6.2,17.3-0.4,23.9
		c-2.7,2.7-6,4.3-9.5,4.8l0.2,5.8c4.9-0.6,9.6-2.8,13.3-6.5c8.7-8.8,8.8-23,0.3-32l4.8-4.9L92.7,55.8z"/>
</g>
</svg>
