<?xml version="1.0" encoding="utf-8"?>
<!-- Generator: Adobe Illustrator 20.1.0, SVG Export Plug-In . SVG Version: 6.00 Build 0)  -->
<svg version="1.1" id="Layer_1" xmlns="http://www.w3.org/2000/svg" xmlns:xlink="http://www.w3.org/1999/xlink" x="0px" y="0px"
	 viewBox="0 0 128.1 100" style="enable-background:new 0 0 128.1 100;" xml:space="preserve">
<style type="text/css">
	.logTargetRevisedDown0{fill:#FFFFFF;}
	.logTargetRevisedDown1{fill:#0bbbef;}
</style>
<g>
	<g>
		<rect x="63" y="46" class="logTargetRevisedDown0" width="14" height="9"/>
		<path class="logTargetRevisedDown0" d="M73.9,83.7C68.3,87.7,62,90.3,55,91V63h-9v28C27,89.1,11.4,74,9.5,55H38v-9H9.5C11.4,27,27,11.9,46,10v28h9
			V10c10,1,18.6,6,25.2,13h11.7C83,10,67.5,0.4,50,0.4c-27.6,0-50,22.4-50,50c0,27.6,22.4,50,50,50c11.1,0,21.5-3.6,29.8-9.7
			L73.9,83.7z"/>
	</g>
	<polygon class="logTargetRevisedDown1" points="128.1,63.9 111,63.9 111,32.5 86.1,32.5 86.1,63.9 69,63.9 98.5,97.8 	"/>
</g>
</svg>
