<?xml version="1.0" encoding="utf-8"?>
<!-- Generator: Adobe Illustrator 20.1.0, SVG Export Plug-In . SVG Version: 6.00 Build 0)  -->
<svg version="1.1" id="Layer_1" xmlns="http://www.w3.org/2000/svg" xmlns:xlink="http://www.w3.org/1999/xlink" x="0px" y="0px"
	 viewBox="0 0 100 100" style="enable-background:new 0 0 100 100;" xml:space="preserve">
<style type="text/css">
	.logOpportunityLost0{fill:#FFFFFF;}
	.logOpportunityLost1{fill:#FF0000;}
	.logOpportunityLost2{fill:#cccccc;}
</style>
<g>
	<g id="JwE9uz.tif_4_">
		<g>
			<path class="logOpportunityLost0" d="M68.8,48.9c9.7-8.2,19.4-16.5,29.3-24.8C90,16,81.8,8,73.7,0c-8.2,9.5-16.6,19.2-24.9,28.8
				C55.5,35.5,62.1,42.2,68.8,48.9z"/>
			<path class="logOpportunityLost2" d="M0,94c0.4-0.9,0.7-1.9,1.1-2.8c4.4-13.2,8.7-26.5,12.1-40c0.4-1.8,0.9-3.5,1.2-5.3c0.1-0.7,0.4-0.9,1.1-0.9
				c4.8,0,9.6-0.3,14.3-1.1c6.4-1.1,12-3.8,16.7-8.4c0.1-0.1,0.2-0.2,0.3-0.2c5.3,5.3,10.5,10.5,15.7,15.7c-1.2,1.6-2.6,3.1-3.8,4.8
				c-3,4.3-4.6,9.2-5.1,14.4c-0.4,4.1-0.6,8.2-0.8,12.3c0,0.6-0.2,0.8-0.8,1c-16.2,3.6-32,8.9-47.7,14.1c-0.2,0.1-0.4,0.2-0.6,0.3
				c-0.1,0-0.1,0-0.2,0c0.3-0.3,0.5-0.7,0.8-1c7.8-7.8,15.6-15.6,23.4-23.4c0.6-0.6,1.2-1,2.1-0.7c0.5,0.1,1.1,0,1.6-0.1
				c2.8-0.6,4.6-3.4,4-6.2c-0.6-2.8-3.3-4.7-6.1-4.1c-2.9,0.6-4.8,3.2-4.2,6c0.1,0.6-0.1,1-0.5,1.4C16.7,77.7,8.8,85.6,0.8,93.5
				C0.6,93.8,0.3,94,0,94.2C0,94.1,0,94,0,94z"/>
			<path class="logOpportunityLost1" d="M68.8,48.9c-6.7-6.7-13.3-13.3-20-20C57.1,19.2,65.5,9.5,73.7,0C81.8,8,90,16,98.1,24
				C88.3,32.4,78.5,40.6,68.8,48.9z"/>
		</g>
	</g>
	<path class="logOpportunityLost1" d="M86.3,79.8l12.6-12.6c1.7-1.7,1.7-4.6,0-6.3c-1.7-1.7-4.6-1.7-6.3,0L80,73.5L67.4,61c-1.7-1.7-4.6-1.7-6.3,0
		c-1.7,1.7-1.7,4.6,0,6.3l12.6,12.6L61.2,92.4c-1.7,1.7-1.7,4.6,0,6.3c0.9,0.9,2,1.3,3.1,1.3c1.1,0,2.3-0.4,3.1-1.3L80,86.1
		l12.6,12.6c0.9,0.9,2,1.3,3.1,1.3s2.3-0.4,3.1-1.3c1.7-1.7,1.7-4.6,0-6.3L86.3,79.8z"/>
</g>
</svg>
