<?xml version="1.0" encoding="utf-8"?>
<!-- Generator: Adobe Illustrator 20.1.0, SVG Export Plug-In . SVG Version: 6.00 Build 0)  -->
<svg version="1.1" id="Layer_1" xmlns="http://www.w3.org/2000/svg" xmlns:xlink="http://www.w3.org/1999/xlink" x="0px" y="0px"
	 viewBox="0 0 99.2 100" style="enable-background:new 0 0 99.2 100;" xml:space="preserve">
<style type="text/css">
	.logNewRevenue0{fill:#FFFFFF;}
</style>
<g id="e44W9W.tif_7_">
	<g>
		<g>
			<path class="logNewRevenue0" d="M0,49.3c0-8.4,0-16.8,0-25.2c0-0.7,0.1-1.1,0.8-1.4C16.9,15.2,33,7.8,49,0.3c0.9-0.4,1.5-0.4,2.4,0
				C67,7.7,82.6,15.1,98.2,22.4c0.8,0.4,1.1,0.8,1.1,1.7c0,16.7,0,33.4,0,50.1c0,0.9-0.3,1.3-1.1,1.7c-15.4,7.9-30.7,15.8-46,23.8
				c-0.7,0.4-1.2,0.4-1.9,0.1C33.8,91.8,17.4,83.9,1,76.1C0.2,75.7,0,75.3,0,74.5C0.1,66.1,0.1,57.7,0,49.3L0,49.3z M48.3,94.3
				c0-0.4,0.1-0.7,0.1-0.9c0-15.6,0-31.3,0-46.9c0-0.7-0.2-1-0.8-1.3C33.4,38.9,19.3,32.7,5.2,26.4c-0.3-0.1-0.6-0.2-1-0.4
				c0,0.3-0.1,0.6-0.1,0.8c0,15.1,0,30.2,0,45.2c0,0.7,0.2,1.1,0.9,1.4c14.1,6.8,28.2,13.5,42.3,20.3C47.6,94,47.9,94.1,48.3,94.3z
				 M67.5,38.3c-0.3,0.1-0.4,0.1-0.5,0.1c-4.7,2.3-9.3,4.5-14,6.7c-0.7,0.3-0.6,0.8-0.6,1.3c0,15.6,0,31.3,0,46.9
				c0,0.3,0,0.7,0.1,1.1c0.4-0.2,0.6-0.2,0.8-0.3c13.7-6.9,27.3-13.8,41-20.7c0.6-0.3,0.8-0.7,0.8-1.3c0-15.1,0-30.2,0-45.4
				c0-0.3,0-0.7,0-1.2c-0.5,0.2-0.9,0.4-1.2,0.5c-3.9,1.8-7.7,3.6-11.6,5.3c-0.7,0.3-1,0.7-1,1.5c0,7,0,13.9,0,20.9
				c0,0.7-0.2,1.1-0.8,1.4c-4,2-8,4-12,6.1c-0.3,0.1-0.6,0.2-1,0.4C67.5,53.8,67.5,46.1,67.5,38.3z M64.7,34.8
				c-0.3-0.2-0.4-0.3-0.5-0.3C51.1,28.6,37.9,22.8,24.8,17c-0.4-0.2-1-0.1-1.4,0.1c-4,1.7-8,3.5-12,5.3c-1.1,0.5-2.2,1-3.4,1.5
				c0.3,0.2,0.5,0.3,0.7,0.4C22.3,30.1,35.9,36,49.5,41.8c0.4,0.2,1,0.1,1.4-0.1c3.1-1.5,6.2-3.1,9.3-4.7
				C61.7,36.3,63.1,35.6,64.7,34.8z M90.7,23.4c-0.4-0.2-0.6-0.3-0.8-0.4C76.7,16.9,63.6,10.9,50.4,4.8C50,4.7,49.4,4.7,49,4.9
				c-3.6,1.6-7.1,3.3-10.6,5c-0.3,0.1-0.5,0.3-0.8,0.5c0.1,0.1,0.2,0.2,0.2,0.2c13.6,6.2,27.2,12.3,40.8,18.4
				c0.3,0.2,0.9,0.1,1.3-0.1c3.3-1.6,6.6-3.2,9.8-4.8C89.9,23.8,90.2,23.6,90.7,23.4z"/>
		</g>
	</g>
</g>
</svg>
