<?xml version="1.0" encoding="utf-8"?>
<!-- Generator: Adobe Illustrator 16.0.4, SVG Export Plug-In . SVG Version: 6.00 Build 0)  -->
<!DOCTYPE svg PUBLIC "-//W3C//DTD SVG 1.1//EN" "http://www.w3.org/Graphics/SVG/1.1/DTD/svg11.dtd">
<svg version="1.1" id="Capa_1" xmlns="http://www.w3.org/2000/svg" xmlns:xlink="http://www.w3.org/1999/xlink" x="0px" y="0px"
	 width="32.5px" height="32.5px" viewBox="0 0 32.5 32.5" enable-background="new 0 0 32.5 32.5" xml:space="preserve">
<path fill="none" stroke-miterlimit="10" d="M30.75,27.264c0,1.926-1.561,3.486-3.486,3.486H4.236
	c-1.925,0-3.486-1.561-3.486-3.486V4.236c0-1.925,1.561-3.486,3.486-3.486h23.027c1.926,0,3.486,1.561,3.486,3.486V27.264z"/>
<g>
	<path stroke="none" d="M5.293,7.152h4.778c0.091,0.227,0.136,0.446,0.136,0.658c0,0.189-0.038,0.322-0.114,0.397
		c-0.076,0.076-0.208,0.114-0.397,0.114H8.891c-0.053,1.052-0.08,2.849-0.08,5.391h6.729c-0.007-2.542-0.038-4.339-0.091-5.391
		h-1.168c-0.099-0.257-0.148-0.496-0.148-0.715c0-0.159,0.04-0.274,0.119-0.346c0.08-0.072,0.21-0.108,0.392-0.108h4.778
		c0.091,0.227,0.136,0.446,0.136,0.658c0,0.189-0.038,0.322-0.113,0.397c-0.076,0.076-0.208,0.114-0.397,0.114h-0.919
		c-0.053,1.052-0.079,2.784-0.079,5.198c0,4.252,0.03,6.904,0.091,7.955h1.282c0.091,0.227,0.136,0.447,0.136,0.658
		c0,0.189-0.038,0.322-0.113,0.397c-0.076,0.076-0.208,0.113-0.397,0.113h-4.766c-0.099-0.257-0.148-0.496-0.148-0.715
		c0-0.159,0.04-0.274,0.119-0.346c0.08-0.072,0.21-0.108,0.392-0.108h0.806c0.053-0.893,0.083-2.992,0.091-6.298H8.811
		c0.007,3.299,0.038,5.398,0.091,6.298h1.169c0.091,0.227,0.136,0.447,0.136,0.658c0,0.189-0.038,0.322-0.114,0.397
		s-0.208,0.113-0.397,0.113H4.93c-0.098-0.257-0.147-0.496-0.147-0.715c0-0.159,0.04-0.274,0.119-0.346
		c0.08-0.072,0.21-0.108,0.392-0.108h0.919c0.06-1.051,0.091-3.749,0.091-8.091c-0.008-2.323-0.038-4.01-0.091-5.062H4.93
		C4.832,8.064,4.782,7.826,4.782,7.606c0-0.159,0.04-0.274,0.119-0.346C4.981,7.188,5.111,7.152,5.293,7.152z"/>
	<path stroke="none" d="M27.039,16.74c-0.218,0.667-0.655,2.07-1.311,4.208c-0.656,2.138-1.142,3.4-1.457,3.786s-0.672,0.633-1.069,0.742
		c-0.397,0.109-0.85,0.164-1.358,0.164c-0.495,0-0.816-0.037-0.964-0.109c-0.147-0.073-0.221-0.207-0.221-0.402
		c0-0.241,0.077-0.458,0.231-0.654c0.854,0.172,1.482,0.237,1.886,0.194c0.404-0.043,0.806-0.691,1.205-1.944
		c-0.376-0.014-0.581-0.032-0.613-0.054c-0.032-0.023-0.27-0.788-0.715-2.295c-0.445-1.507-0.723-2.427-0.834-2.761
		c-0.111-0.334-0.2-0.565-0.266-0.695s-0.149-0.208-0.249-0.238c-0.1-0.029-0.229-0.044-0.388-0.044
		c-0.059-0.149-0.088-0.288-0.088-0.415c0-0.154,0.077-0.246,0.231-0.276c0.154-0.029,0.467-0.044,0.939-0.044
		c0.363,0,0.608,0.022,0.736,0.065c0.127,0.043,0.215,0.123,0.265,0.238c0.05,0.116,0.126,0.437,0.229,0.963
		c0.102,0.527,0.317,1.404,0.646,2.632s0.514,1.842,0.555,1.842s0.247-0.707,0.62-2.121c0.372-1.414,0.585-2.341,0.64-2.781h-0.368
		c-0.055-0.132-0.082-0.266-0.082-0.402s0.026-0.231,0.079-0.286c0.052-0.054,0.137-0.082,0.255-0.082h1.92
		c0.059,0.127,0.088,0.263,0.088,0.409c0,0.141-0.029,0.236-0.088,0.286c-0.059,0.05-0.161,0.075-0.306,0.075H27.039z"/>
</g>
<line stroke-miterlimit="10" x1="21.25" y1="14.75" x2="27.25" y2="14.75"/>
</svg>
