<?xml version="1.0" encoding="utf-8"?>
<!-- Generator: Adobe Illustrator 20.1.0, SVG Export Plug-In . SVG Version: 6.00 Build 0)  -->
<svg version="1.1" id="Layer_1" xmlns="http://www.w3.org/2000/svg" xmlns:xlink="http://www.w3.org/1999/xlink" x="0px" y="0px"
	 viewBox="0 0 105.1 100" style="enable-background:new 0 0 105.1 100;" xml:space="preserve">
	<g>
		<g>
			<polygon points="52.6,7.9 68.8,0 77.3,16 95.1,19.1 92.6,37 105.1,50 92.6,63 95.1,80.9 77.3,84 68.8,100 52.6,92.1 
				36.3,100 27.9,84 10,80.9 12.6,63 0,50 12.6,37 10,19.1 27.9,16 36.3,0 		"/>
		</g>
		<g>
			<path d="M43.6,76.3c0-4.6,3.2-7.9,7.8-7.9s7.6,3.3,7.7,7.9c0,4.5-3,7.9-7.7,7.9C46.7,84.2,43.6,80.8,43.6,76.3z
				 M46.5,64.2l-2-39.1h13.7l-1.9,39.1H46.5z"/>
		</g>
	</g>
</svg>
