<?xml version="1.0" encoding="utf-8"?>
<!-- Generator: Adobe Illustrator 20.0.0, SVG Export Plug-In . SVG Version: 6.00 Build 0)  -->
<svg version="1.1" id="Layer_1" xmlns="http://www.w3.org/2000/svg" xmlns:xlink="http://www.w3.org/1999/xlink" x="0px" y="0px"
	 viewBox="0 0 50 50" style="enable-background:new 0 0 50 50;" xml:space="preserve">
<path d="M24.7,0C10.9,0.2-0.2,11.5,0,25.3C0.2,39.1,11.5,50.2,25.3,50C39.1,49.8,50.2,38.5,50,24.7C49.8,10.9,38.5-0.2,24.7,0z
	 M24.6,40.2l-0.1,0c-2.1-0.1-3.6-1.6-3.6-3.7c0.1-2.1,1.6-3.6,3.7-3.6l0.1,0c2.2,0.1,3.7,1.6,3.6,3.8C28.2,38.8,26.7,40.2,24.6,40.2
	z M33.5,22.5c-0.5,0.7-1.6,1.6-3,2.7L29,26.2c-0.8,0.7-1.3,1.3-1.5,1.9c-0.1,0.5-0.2,0.6-0.2,1.6l0,0.2h-5.8l0-0.5
	c0.1-2,0.1-3.2,1-4.2c1.3-1.5,4.2-3.4,4.3-3.5c0.4-0.3,0.8-0.7,1-1.1c0.6-0.8,0.9-1.5,0.9-2.2c0-0.9-0.3-1.7-0.8-2.5
	c-0.5-0.7-1.5-1.1-2.9-1.1c-1.4,0-2.3,0.4-2.9,1.3c-0.6,0.9-0.9,1.9-0.9,2.9v0.2h-6l0-0.3c0.2-3.7,1.5-6.3,3.9-7.9
	c1.5-1,3.4-1.5,5.7-1.5c2.9,0,5.4,0.7,7.3,2.1c2,1.4,2.9,3.5,2.9,6.3C35,19.7,34.5,21.2,33.5,22.5z"/>
</svg>
