<?xml version="1.0" encoding="utf-8"?>
<!-- Generator: Adobe Illustrator 20.1.0, SVG Export Plug-In . SVG Version: 6.00 Build 0)  -->
<svg version="1.1" id="Layer_1" xmlns="http://www.w3.org/2000/svg" xmlns:xlink="http://www.w3.org/1999/xlink" x="0px" y="0px"
	 viewBox="0 0 104.6 100" style="enable-background:new 0 0 104.6 100;" xml:space="preserve">
	<g>
		<path d="M72.2,66.7c-3.8,0-7.3,1.3-10.1,3.5l-29-17.4c0.1-0.9,0.2-1.8,0.2-2.7c0-0.9-0.1-1.8-0.2-2.7l29-17.4
			c2.8,2.2,6.3,3.5,10.1,3.5c9.2,0,16.7-7.5,16.7-16.7S81.4,0,72.2,0S55.6,7.5,55.6,16.7c0,0.9,0.1,1.8,0.2,2.7l-29,17.4
			c-2.8-2.2-6.3-3.5-10.1-3.5C7.5,33.3,0,40.8,0,50s7.5,16.7,16.7,16.7c3.8,0,7.3-1.3,10.1-3.5l29,17.4c-0.1,0.9-0.2,1.8-0.2,2.7
			c0,9.2,7.5,16.7,16.7,16.7s16.7-7.5,16.7-16.7S81.4,66.7,72.2,66.7z"/>
	</g>
</svg>
