<?xml version="1.0" encoding="utf-8"?>
<!-- Generator: Adobe Illustrator 20.1.0, SVG Export Plug-In . SVG Version: 6.00 Build 0)  -->
<svg version="1.1" id="Layer_1" xmlns="http://www.w3.org/2000/svg" xmlns:xlink="http://www.w3.org/1999/xlink" x="0px" y="0px"
	 viewBox="0 0 88.9 100" style="enable-background:new 0 0 88.9 100;" xml:space="preserve">
	<path d="M64.7,35.3c-0.7-2,19.7-20.2,7.8-35C69.7-3.1,60.2,16.9,46.8,26c-7.4,5-24.6,15.6-24.6,21.5v38
		c0,7.1,27.3,14.5,48.1,14.5c7.6,0,18.6-47.6,18.6-55.2C88.9,37.2,65.4,37.3,64.7,35.3z M16.7,35.9C13,35.9,0,38.1,0,53.2v26.9
		c0,15.1,13,16.8,16.7,16.8c3.7,0-5.6-3.2-5.6-12.6V49C11.1,39.2,20.3,35.9,16.7,35.9z"/>
</svg>
