<?xml version="1.0" encoding="utf-8"?>
<!-- Generator: Adobe Illustrator 20.1.0, SVG Export Plug-In . SVG Version: 6.00 Build 0)  -->
<svg version="1.1" id="Layer_1" xmlns="http://www.w3.org/2000/svg" xmlns:xlink="http://www.w3.org/1999/xlink" x="0px" y="0px"
	 viewBox="0 0 88.9 100" style="enable-background:new 0 0 88.9 100;" xml:space="preserve">
	<path d="M88.9,55.2c0-7.6-11-55.2-18.6-55.2C49.5,0,22.2,7.5,22.2,14.5v38c0,5.9,17.2,16.5,24.6,21.5
		c13.4,9,22.9,29,25.6,25.6c11.9-14.8-8.5-33-7.8-35C65.4,62.7,88.9,62.8,88.9,55.2z M11.1,51V15.6c0-9.4,9.2-12.6,5.6-12.6
		C13,3.1,0,4.7,0,19.8v26.9c0,15.1,13,17.3,16.7,17.3C20.3,64.1,11.1,60.8,11.1,51z"/>
</svg>
