<svg id="Layer_1" xmlns="http://www.w3.org/2000/svg" viewBox="0 0 189.3 40"><path d="M76.3 9.6c-4 0-6.4 1.9-8.2 5-.8-1.8-2.6-5-8.2-5-4.3 0-6.3 2.4-7.5 5h-.1c0-.8 0-1.6-.1-2.4-.2-.9-1-1.6-2-1.6-1.1 0-2.1.9-2.1 2 .1 1.2.1 2.5.1 4v17.5c0 1.2 1 2.1 2.2 2.1 1.1 0 2-.8 2.1-1.9V23.7c0-6 1.2-10 6.9-10 3.6 0 5 2.2 5 8v12.4c0 1.2 1 2.1 2.2 2.1 1.1 0 2-.8 2.1-1.9V21.4c0-4.7 3.1-7.7 6.7-7.7 5.1 0 5.1 3.5 5.1 7.1V34c0 1.2 1 2.2 2.2 2.2 1.1 0 2-.9 2.1-1.9V20.6c.2-6.8-1-11-8.5-11m40.5 0c-4 0-6.4 1.9-8.2 5-.8-1.8-2.6-5-8.2-5-4.3 0-6.3 2.4-7.5 5h-.1c0-.8 0-1.6-.1-2.4-.2-.9-1-1.6-2-1.6-1.1 0-2.1.9-2.1 2 .1 1.2.1 2.5.1 4v17.5c0 1.2 1 2.1 2.2 2.1 1.1 0 2-.8 2.1-1.9V23.7c0-6 1.2-10 6.9-10 3.6 0 5 2.2 5 8v12.4c0 1.2 1 2.1 2.2 2.1 1.1 0 2-.8 2.1-1.9V21.4c0-4.7 3.1-7.7 6.7-7.7 5.1 0 5.1 3.5 5.1 7.1V34c0 1.2 1 2.2 2.2 2.2 1.1 0 2-.9 2.1-1.9V20.6c.2-6.8-1-11-8.5-11m54.2 0c-.1 0-.1 0 0 0h-.3c-4.2.1-7.4 2.4-8.5 4.9h-.1c0-.8 0-1.6-.1-2.4V12c-.2-1.1-1.3-1.9-2.5-1.6-.8.2-1.5.8-1.6 1.6.1 1.3.2 2.8.2 4.4v17.9c.1 1.1 1.1 1.9 2.2 1.9 1.2 0 2.2-1 2.2-2.2v-.1-10.2c0-6 2.3-9.7 7.6-9.7h.9c1.2 0 2.2-1 2.2-2.2-.1-1.1-1-2.1-2.2-2.2M133.4 21c.7-4.6 3.7-7.6 8.8-7.6 5 0 8.1 3 8.4 7.6h-17.2zm9-11.5c-7.7 0-13.4 5.6-13.4 13.7 0 7.6 5 13.7 13.2 13.7 3.9 0 7.1-1 9.7-3.4.7-.8.7-2 0-2.8-.7-.7-1.8-.9-2.6-.4-1.7 1.6-4.1 2.6-7 2.6-5.5 0-8.9-3.4-9-8.4h19.2c.5 0 .8-.1 1.1-.2.6-.3.8-.7 1-1.3.1-.2 0-1.5 0-1.5-.5-7.6-5.3-12-12.2-12m-119.1-2c0-.1 0-.1 0 0 .4-1.3-.3-2.5-1.4-2.9-1.1-.4-2.3.2-2.7 1.3V6c-.7 2.1-7 18.5-7 18.5H12L4.5 5.8l-.1-.2C3.9 4.5 2.6 4 1.5 4.4.3 4.8-.3 6.1.1 7.3 1 9.6 9.6 30.5 9.6 30.5L9 31.7C8.1 34.3 7 36 4.2 36c-.3 0-1.2-.1-1.3-.1-.9 0-1.8.5-2 1.5-.3 1 .3 2.1 1.4 2.4.7.2 1.5.2 2.2.2 5.2 0 7-3 8.7-7.4l9.9-24.7c.1-.2.1-.3.2-.4zm16.7 18c-.1 4.2-2.7 7.9-7.7 7.9-3.3 0-5.7-1.2-5.7-4.5 0-3.5 3.6-5 9.1-5H40v1.6zm4.4 8.3c0-.6-.1-1.3-.1-1.9V20.7c0-7.4-3.2-11-10.9-11-3.1 0-6.2.9-8.7 2.6-.7.7-.8 1.8-.2 2.6.7.9 1.9 1.1 2.8.5l.1-.1c1.8-1.1 4-1.7 6.2-1.7 4.1 0 6.5 2 6.5 5.7v.8h-1.7c-6.4 0-16.4.5-16.4 9.1 0 5.1 4.4 7.7 9.7 7.7 4 0 6.9-1.9 8.6-4.6h.1v2.1c.2 1.1 1.2 1.8 2.3 1.7 1.1 0 1.8-1.1 1.7-2.3 0 .1 0 0 0 0M183.2 23.7c-.2 0-.4 0-.6-.1l-.3-.1c-.7-.4-8.4-5.6-8.4-6.9 0-.2.1-.3.2-.4.2-.1.4-.2.6-.2 1.8 0 6.8 2.4 9.7 4 .9.7 1.1 1.9.5 2.8-.3.5-1 .9-1.7.9M174.8 7.8c-.3 0-.5-.1-.6-.2-.1-.1-.2-.3-.2-.4.1-1.4 7.8-6.6 8.4-6.9l.2-.1c.2-.2.4-.2.6-.2.7 0 1.4.4 1.8 1 .6.9.4 2.1-.5 2.8-2.9 1.6-7.9 4-9.7 4M187.5 13.8c-.1 0-10.2 0-10.9-1.6-.1-.2-.1-.3 0-.5.7-1.2 10-2 10.7-2h.2c1 .2 1.6 1 1.7 1.9.2 1.1-.6 2-1.7 2.2z"/></svg>