<?xml version="1.0" encoding="utf-8"?>
<!-- Generator: Adobe Illustrator 20.0.0, SVG Export Plug-In . SVG Version: 6.00 Build 0)  -->
<svg version="1.1" id="Layer_1" xmlns="http://www.w3.org/2000/svg" xmlns:xlink="http://www.w3.org/1999/xlink" x="0px" y="0px"
	 viewBox="0 0 60.5 50" style="enable-background:new 0 0 60.5 50;" xml:space="preserve">
	<g id="VhrxT8.tif">
		<g>
			<path class="st0" d="M16.5,29c0.2-0.2,0.2-0.5,0.5-0.7c3.5-8.7,7-17.5,10.5-26.2c0.7-1.5,2-2.2,3.5-2c1.7,0.5,2.7,2.2,2,4
				c-2,5-4,10.2-6.2,15.2c-3,7.5-6,15-9,22.5c-0.5,1-1,2.2-1.7,3.2c-2,3-4.7,4.5-8.2,5c-1.5,0-3,0-4.5,0s-2.7-1.2-3-2.7
				c0-1.5,1-2.7,2.7-3c1.5,0,2.7-0.2,4.2-0.2c2,0,3.2-1,4-2.5s1.2-3,2-4.5c0.2-0.5,0-0.7-0.2-1C9,25.5,4.8,14.8,0.3,4.3
				c-0.2-1-0.5-2,0-2.7C1,0.5,1.8,0,3,0s2.2,0.7,2.5,1.7c1.2,3,2.5,6,3.7,9c2.2,5.7,4.7,11.7,7,17.5C16.3,28.5,16.5,28.8,16.5,29z"/>
			<path class="st0" d="M53.5,42c0,1-0.5,2-1.5,2.5c-1,0.5-2.2,0.5-3.2,0c-4-2.7-8-5.5-11.5-8.7c-0.5-0.5-1.2-1-1.7-1.5
				c-0.2-0.2-0.5-0.7-0.2-1c0.2-0.5,0.7-0.2,1.2-0.2c1.5,0.2,2.7,1,4,1.5c4,1.5,7.7,3.2,11.2,5.2C53,39.8,53.5,40.8,53.5,42z"/>
			<path class="st0" d="M56.7,22.3c0.5,0,1,0,1.2,0c1.5,0.2,2.7,1.5,2.5,3.2c0,1.5-1.5,2.7-3.2,2.7c-5.5-0.2-10.7-0.7-16-2
				c-0.2,0-0.7-0.2-1-0.2c-0.2,0-0.5-0.2-0.5-0.7c0-0.2,0.2-0.5,0.5-0.7c0.5-0.2,1-0.2,1.2-0.5C46.7,23,51.7,22.5,56.7,22.3z"/>
			<path class="st0" d="M53.5,8.5c0,1-0.5,2-1.5,2.5c-4.7,2.5-9.7,4.7-14.7,6.5c-0.5,0-1,0.2-1.5,0c-0.5,0-0.7-0.5-0.5-1
				s0.7-1,1.2-1.5c3.7-3.5,8-6.5,12.2-9.2c0.7-0.5,1.5-0.7,2.5-0.5C52.5,5.8,53.5,7,53.5,8.5z"/>
		</g>
	</g>
</svg>
